<svg width="425" height="120" viewBox="0 0 425 120" fill="none" xmlns="http://www.w3.org/2000/svg">
<g filter="url(#filter0_d_191_92)">
<path d="M43.3908 54.1C46.6908 42.55 49.9908 29.95 52.8408 17.8H53.5908C56.7408 29.8 59.7408 42.55 63.1908 54.1L66.4908 66.25H40.0908L43.3908 54.1ZM4.99082 112H27.4908L35.2908 83.5H71.2908L79.0908 112H102.341L66.6408 0.849992H40.5408L4.99082 112ZM125.835 112H152.985L165.135 57.1C166.935 48.4 168.435 39.85 169.935 31.3H170.535C171.885 39.85 173.535 48.4 175.335 57.1L187.785 112H215.385L235.935 0.849992H214.935L206.085 55.15C204.435 66.7 202.785 78.55 201.135 90.55H200.385C197.985 78.55 195.735 66.55 193.335 55.15L180.585 0.849992H161.535L148.635 55.15C146.235 66.7 143.835 78.55 141.585 90.55H140.985C139.335 78.55 137.535 66.85 135.885 55.15L127.035 0.849992H104.535L125.835 112ZM276.74 54.1C280.04 42.55 283.34 29.95 286.19 17.8H286.94C290.09 29.8 293.09 42.55 296.54 54.1L299.84 66.25H273.44L276.74 54.1ZM238.34 112H260.84L268.64 83.5H304.64L312.44 112H335.69L299.99 0.849992H273.89L238.34 112ZM364.651 112H386.851V71.35L420.301 0.849992H397.201L386.101 28C382.951 36.25 379.651 44.05 376.201 52.6H375.601C372.151 44.05 369.151 36.25 366.001 28L354.901 0.849992L331.351 0.849992L364.651 71.35V112Z" fill="#F23827"/>
<path d="M43.3908 54.1L38.5832 52.7264L38.5742 52.7579L38.5656 52.7895L43.3908 54.1ZM52.8408 17.8V12.8H48.878L47.973 16.6581L52.8408 17.8ZM53.5908 17.8L58.427 16.5305L57.4477 12.8H53.5908V17.8ZM63.1908 54.1L68.016 52.7895L67.9996 52.729L67.9817 52.669L63.1908 54.1ZM66.4908 66.25V71.25H73.03L71.316 64.9395L66.4908 66.25ZM40.0908 66.25L35.2656 64.9395L33.5517 71.25H40.0908V66.25ZM4.99082 112L0.228477 110.477L-1.85788 117H4.99082V112ZM27.4908 112V117H31.3063L32.3135 113.32L27.4908 112ZM35.2908 83.5V78.5H31.4754L30.4682 82.1801L35.2908 83.5ZM71.2908 83.5L76.1135 82.1801L75.1063 78.5H71.2908V83.5ZM79.0908 112L74.2682 113.32L75.2754 117H79.0908V112ZM102.341 112V117H109.198L107.101 110.471L102.341 112ZM66.6408 0.849991L71.4013 -0.679016L70.2865 -4.15001H66.6408V0.849991ZM40.5408 0.849991V-4.15001H36.8905L35.7785 -0.673187L40.5408 0.849991ZM48.1984 55.4736C51.5191 43.8514 54.8394 31.1741 57.7087 18.9418L47.973 16.6581C45.1422 28.7259 41.8626 41.2486 38.5832 52.7264L48.1984 55.4736ZM52.8408 22.8H53.5908V12.8H52.8408V22.8ZM48.7547 19.0695C51.857 30.8881 54.9195 43.8791 58.4 55.531L67.9817 52.669C64.5621 41.2209 61.6246 28.7119 58.427 16.5305L48.7547 19.0695ZM58.3656 55.4105L61.6656 67.5605L71.316 64.9395L68.016 52.7895L58.3656 55.4105ZM66.4908 61.25H40.0908V71.25H66.4908V61.25ZM44.916 67.5605L48.216 55.4105L38.5656 52.7895L35.2656 64.9395L44.916 67.5605ZM4.99082 117H27.4908V107H4.99082V117ZM32.3135 113.32L40.1135 84.8199L30.4682 82.1801L22.6682 110.68L32.3135 113.32ZM35.2908 88.5H71.2908V78.5H35.2908V88.5ZM66.4682 84.8199L74.2682 113.32L83.9135 110.68L76.1135 82.1801L66.4682 84.8199ZM79.0908 117H102.341V107H79.0908V117ZM107.101 110.471L71.4013 -0.679016L61.8803 2.379L97.5804 113.529L107.101 110.471ZM66.6408 -4.15001H40.5408V5.84999H66.6408V-4.15001ZM35.7785 -0.673187L0.228477 110.477L9.75317 113.523L45.3032 2.37317L35.7785 -0.673187ZM125.835 112L120.924 112.941L121.702 117H125.835V112ZM152.985 112V117H156.999L157.866 113.08L152.985 112ZM165.135 57.1L170.016 58.1804L170.024 58.1468L170.031 58.113L165.135 57.1ZM169.935 31.3V26.3H165.735L165.01 30.436L169.935 31.3ZM170.535 31.3L175.473 30.5202L174.807 26.3H170.535V31.3ZM175.335 57.1L170.438 58.113L170.448 58.1595L170.458 58.2058L175.335 57.1ZM187.785 112L182.908 113.106L183.791 117H187.785V112ZM215.385 112V117H219.545L220.301 112.909L215.385 112ZM235.935 0.849991L240.851 1.75901L241.944 -4.15001H235.935V0.849991ZM214.935 0.849991V-4.15001H210.684L210 0.0456886L214.935 0.849991ZM206.085 55.15L201.15 54.3457L201.142 54.3942L201.135 54.4429L206.085 55.15ZM201.135 90.55V95.55H205.494L206.088 91.2311L201.135 90.55ZM200.385 90.55L195.482 91.5306L196.286 95.55H200.385V90.55ZM193.335 55.15L198.227 54.1199L198.215 54.0634L198.202 54.007L193.335 55.15ZM180.585 0.849991L185.452 -0.292957L184.547 -4.15001H180.585V0.849991ZM161.535 0.849991V-4.15001H157.583L156.67 -0.305687L161.535 0.849991ZM148.635 55.15L143.77 53.9943L143.754 54.0633L143.739 54.1328L148.635 55.15ZM141.585 90.55V95.55H145.734L146.499 91.4714L141.585 90.55ZM140.985 90.55L136.031 91.2311L136.625 95.55H140.985V90.55ZM135.885 55.15L140.836 54.4518L140.828 54.3987L140.819 54.3457L135.885 55.15ZM127.035 0.849991L131.969 0.0456886L131.286 -4.15001H127.035V0.849991ZM104.535 0.849991V-4.15001H98.4854L99.6239 1.79103L104.535 0.849991ZM125.835 117H152.985V107H125.835V117ZM157.866 113.08L170.016 58.1804L160.253 56.0196L148.103 110.92L157.866 113.08ZM170.031 58.113C171.849 49.3268 173.361 40.7028 174.859 32.164L165.01 30.436C163.508 38.9972 162.02 47.4732 160.238 56.087L170.031 58.113ZM169.935 36.3H170.535V26.3H169.935V36.3ZM165.596 32.0798C166.963 40.7389 168.63 49.3741 170.438 58.113L180.231 56.087C178.439 47.4259 176.806 38.9611 175.473 30.5202L165.596 32.0798ZM170.458 58.2058L182.908 113.106L192.661 110.894L180.211 55.9942L170.458 58.2058ZM187.785 117H215.385V107H187.785V117ZM220.301 112.909L240.851 1.75901L231.018 -0.0590286L210.468 111.091L220.301 112.909ZM235.935 -4.15001H214.935V5.84999H235.935V-4.15001ZM210 0.0456886L201.15 54.3457L211.019 55.9543L219.869 1.6543L210 0.0456886ZM201.135 54.4429C199.483 66.0045 197.832 77.8637 196.181 89.8689L206.088 91.2311C207.737 79.2363 209.386 67.3955 211.034 55.8571L201.135 54.4429ZM201.135 85.55H200.385V95.55H201.135V85.55ZM205.287 89.5694C202.905 77.6589 200.632 65.5443 198.227 54.1199L188.442 56.1801C190.837 67.5557 193.064 79.4411 195.482 91.5306L205.287 89.5694ZM198.202 54.007L185.452 -0.292957L175.717 1.99294L188.467 56.2929L198.202 54.007ZM180.585 -4.15001H161.535V5.84999H180.585V-4.15001ZM156.67 -0.305687L143.77 53.9943L153.499 56.3057L166.399 2.00567L156.67 -0.305687ZM143.739 54.1328C141.336 65.698 138.929 77.5834 136.67 89.6286L146.499 91.4714C148.74 79.5166 151.133 67.702 153.53 56.1672L143.739 54.1328ZM141.585 85.55H140.985V95.55H141.585V85.55ZM145.938 89.8689C144.294 77.9124 142.466 66.0147 140.836 54.4518L130.934 55.8482C132.603 67.6852 134.375 79.1876 136.031 91.2311L145.938 89.8689ZM140.819 54.3457L131.969 0.0456886L122.1 1.6543L130.95 55.9543L140.819 54.3457ZM127.035 -4.15001H104.535V5.84999H127.035V-4.15001ZM99.6239 1.79103L120.924 112.941L130.745 111.059L109.445 -0.0910492L99.6239 1.79103ZM276.74 54.1L271.933 52.7264L271.924 52.7579L271.915 52.7895L276.74 54.1ZM286.19 17.8V12.8H282.228L281.323 16.6581L286.19 17.8ZM286.94 17.8L291.777 16.5305L290.797 12.8H286.94V17.8ZM296.54 54.1L301.366 52.7895L301.349 52.729L301.331 52.669L296.54 54.1ZM299.84 66.25V71.25H306.38L304.666 64.9395L299.84 66.25ZM273.44 66.25L268.615 64.9395L266.901 71.25H273.44V66.25ZM238.34 112L233.578 110.477L231.492 117H238.34V112ZM260.84 112V117H264.656L265.663 113.32L260.84 112ZM268.64 83.5V78.5H264.825L263.818 82.1801L268.64 83.5ZM304.64 83.5L309.463 82.1801L308.456 78.5H304.64V83.5ZM312.44 112L307.618 113.32L308.625 117H312.44V112ZM335.69 112V117H342.548L340.451 110.471L335.69 112ZM299.99 0.849991L304.751 -0.679016L303.636 -4.15001H299.99V0.849991ZM273.89 0.849991V-4.15001H270.24L269.128 -0.673187L273.89 0.849991ZM281.548 55.4736C284.869 43.8514 288.189 31.1741 291.058 18.9418L281.323 16.6581C278.492 28.7259 275.212 41.2486 271.933 52.7264L281.548 55.4736ZM286.19 22.8H286.94V12.8H286.19V22.8ZM282.104 19.0695C285.207 30.8881 288.269 43.8791 291.75 55.531L301.331 52.669C297.912 41.2209 294.974 28.7119 291.777 16.5305L282.104 19.0695ZM291.715 55.4105L295.015 67.5605L304.666 64.9395L301.366 52.7895L291.715 55.4105ZM299.84 61.25H273.44V71.25H299.84V61.25ZM278.266 67.5605L281.566 55.4105L271.915 52.7895L268.615 64.9395L278.266 67.5605ZM238.34 117H260.84V107H238.34V117ZM265.663 113.32L273.463 84.8199L263.818 82.1801L256.018 110.68L265.663 113.32ZM268.64 88.5H304.64V78.5H268.64V88.5ZM299.818 84.8199L307.618 113.32L317.263 110.68L309.463 82.1801L299.818 84.8199ZM312.44 117H335.69V107H312.44V117ZM340.451 110.471L304.751 -0.679016L295.23 2.379L330.93 113.529L340.451 110.471ZM299.99 -4.15001H273.89V5.84999H299.99V-4.15001ZM269.128 -0.673187L233.578 110.477L243.103 113.523L278.653 2.37317L269.128 -0.673187ZM364.651 112H359.651V117H364.651V112ZM386.851 112V117H391.851V112H386.851ZM386.851 71.35L382.334 69.2067L381.851 70.224V71.35H386.851ZM420.301 0.849991L424.818 2.99332L428.208 -4.15001H420.301V0.849991ZM397.201 0.849991V-4.15001H393.843L392.573 -1.04218L397.201 0.849991ZM386.101 28L381.473 26.1078L381.451 26.1619L381.43 26.2165L386.101 28ZM376.201 52.6V57.6H379.575L380.838 54.471L376.201 52.6ZM375.601 52.6L370.964 54.471L372.227 57.6H375.601V52.6ZM366.001 28L370.672 26.2165L370.651 26.1619L370.629 26.1078L366.001 28ZM354.901 0.849991L359.529 -1.04218L358.259 -4.15001H354.901V0.849991ZM331.351 0.849991V-4.15001H323.46L326.83 2.98546L331.351 0.849991ZM364.651 71.35H369.651V70.2285L369.172 69.2145L364.651 71.35ZM364.651 117H386.851V107H364.651V117ZM391.851 112V71.35H381.851V112H391.851ZM391.368 73.4933L424.818 2.99332L415.784 -1.29333L382.334 69.2067L391.368 73.4933ZM420.301 -4.15001H397.201V5.84999H420.301V-4.15001ZM392.573 -1.04218L381.473 26.1078L390.729 29.8922L401.829 2.74216L392.573 -1.04218ZM381.43 26.2165C378.301 34.4117 375.056 42.0758 371.564 50.729L380.838 54.471C384.246 46.0241 387.601 38.0883 390.772 29.7835L381.43 26.2165ZM376.201 47.6H375.601V57.6H376.201V47.6ZM380.238 50.729C376.806 42.2247 373.82 34.4609 370.672 26.2165L361.33 29.7835C364.482 38.0391 367.496 45.8753 370.964 54.471L380.238 50.729ZM370.629 26.1078L359.529 -1.04218L350.273 2.74216L361.373 29.8922L370.629 26.1078ZM354.901 -4.15001L331.351 -4.15001V5.84999L354.901 5.84999V-4.15001ZM326.83 2.98546L360.13 73.4855L369.172 69.2145L335.872 -1.28548L326.83 2.98546ZM359.651 71.35V112H369.651V71.35H359.651Z" fill="#F2C53D"/>
</g>
<defs>
<filter id="filter0_d_191_92" x="0.990723" y="0.850098" width="423.31" height="119.15" filterUnits="userSpaceOnUse" color-interpolation-filters="sRGB">
<feFlood flood-opacity="0" result="BackgroundImageFix"/>
<feColorMatrix in="SourceAlpha" type="matrix" values="0 0 0 0 0 0 0 0 0 0 0 0 0 0 0 0 0 0 127 0" result="hardAlpha"/>
<feOffset dy="4"/>
<feGaussianBlur stdDeviation="2"/>
<feComposite in2="hardAlpha" operator="out"/>
<feColorMatrix type="matrix" values="0 0 0 0 0 0 0 0 0 0 0 0 0 0 0 0 0 0 0.25 0"/>
<feBlend mode="normal" in2="BackgroundImageFix" result="effect1_dropShadow_191_92"/>
<feBlend mode="normal" in="SourceGraphic" in2="effect1_dropShadow_191_92" result="shape"/>
</filter>
</defs>
</svg>
