<svg width="436" height="125" viewBox="0 0 436 125" fill="none" xmlns="http://www.w3.org/2000/svg">
<g filter="url(#filter0_d_191_91)">
<path d="M4.51621 114H26.7162L26.7162 66H68.7162V114H90.7662V2.84999H68.7162V46.65H26.7162V2.84999H4.51621L4.51621 114ZM162.142 116.1C191.542 116.1 211.792 94.05 211.792 58.05C211.792 22.05 191.542 0.899999 162.142 0.899999C132.742 0.899999 112.492 21.9 112.492 58.05C112.492 94.05 132.742 116.1 162.142 116.1ZM162.142 96.9C145.642 96.9 135.142 81.75 135.142 58.05C135.142 34.2 145.642 19.95 162.142 19.95C178.642 19.95 189.142 34.2 189.142 58.05C189.142 81.75 178.642 96.9 162.142 96.9ZM233.471 114H253.421V67.65C253.421 57.15 251.621 41.7 250.571 31.2H251.171L260.021 57.3L277.271 103.95H290.021L307.121 57.3L316.121 31.2H316.871C315.671 41.7 314.021 57.15 314.021 67.65V114H334.271V2.84999H309.671L291.221 54.9C288.821 61.8 286.871 69.15 284.471 76.2H283.721C281.471 69.15 279.371 61.8 276.971 54.9L258.071 2.84999H233.471V114ZM361.499 114H431.249V95.4H383.699V65.7H422.699V47.1H383.699V21.45H429.599V2.84999H361.499V114Z" fill="#2552D9"/>
<path d="M4.51621 114H-0.483788V119H4.51621V114ZM26.7162 114V119H31.7162V114H26.7162ZM26.7162 66V61H21.7162V66H26.7162ZM68.7162 66H73.7162V61H68.7162V66ZM68.7162 114H63.7162V119H68.7162V114ZM90.7662 114V119H95.7662V114H90.7662ZM90.7662 2.84999L95.7662 2.84999V-2.15001L90.7662 -2.15001V2.84999ZM68.7162 2.84999V-2.15001H63.7162V2.84999H68.7162ZM68.7162 46.65V51.65H73.7162V46.65H68.7162ZM26.7162 46.65H21.7162V51.65H26.7162V46.65ZM26.7162 2.84999H31.7162V-2.15001H26.7162V2.84999ZM4.51621 2.84999V-2.15001H-0.483788V2.84999H4.51621ZM4.51621 119H26.7162V109H4.51621V119ZM31.7162 114V66H21.7162L21.7162 114H31.7162ZM26.7162 71H68.7162V61H26.7162V71ZM63.7162 66V114H73.7162V66H63.7162ZM68.7162 119H90.7662V109H68.7162V119ZM95.7662 114V2.84999L85.7662 2.84999V114H95.7662ZM90.7662 -2.15001H68.7162V7.84999H90.7662V-2.15001ZM63.7162 2.84999V46.65H73.7162V2.84999H63.7162ZM68.7162 41.65H26.7162V51.65H68.7162V41.65ZM31.7162 46.65V2.84999H21.7162V46.65H31.7162ZM26.7162 -2.15001H4.51621V7.84999H26.7162V-2.15001ZM-0.483788 2.84999L-0.483788 114H9.51621L9.51621 2.84999H-0.483788ZM162.142 121.1C178.17 121.1 191.998 115.048 201.759 103.863C211.466 92.7392 216.792 76.9639 216.792 58.05H206.792C206.792 75.1361 201.992 88.3858 194.224 97.2875C186.51 106.127 175.514 111.1 162.142 111.1V121.1ZM216.792 58.05C216.792 39.1334 211.463 23.5575 201.722 12.6452C191.932 1.6794 178.103 -4.1 162.142 -4.1V5.9C175.58 5.9 186.576 10.6956 194.262 19.3048C201.995 27.9675 206.792 40.9666 206.792 58.05H216.792ZM162.142 -4.1C146.191 -4.1 132.36 1.63455 122.565 12.5854C112.818 23.4829 107.492 39.063 107.492 58.05H117.492C117.492 40.887 122.29 27.8921 130.018 19.2521C137.699 10.6655 148.693 5.9 162.142 5.9V-4.1ZM107.492 58.05C107.492 76.9639 112.817 92.7392 122.524 103.863C132.285 115.048 146.114 121.1 162.142 121.1V111.1C148.77 111.1 137.773 106.127 130.059 97.2875C122.291 88.3858 117.492 75.1361 117.492 58.05H107.492ZM162.142 91.9C155.638 91.9 150.378 89.0068 146.561 83.5105C142.631 77.8515 140.142 69.2404 140.142 58.05H130.142C130.142 70.5596 132.902 81.3735 138.347 89.2145C143.905 97.2182 152.145 101.9 162.142 101.9V91.9ZM140.142 58.05C140.142 46.777 142.634 38.3913 146.519 32.9679C150.279 27.7192 155.523 24.95 162.142 24.95V14.95C152.26 14.95 144.005 19.3058 138.389 27.1445C132.899 34.8087 130.142 45.473 130.142 58.05H140.142ZM162.142 24.95C168.76 24.95 174.005 27.7192 177.764 32.9679C181.649 38.3913 184.142 46.777 184.142 58.05H194.142C194.142 45.473 191.384 34.8087 185.894 27.1446C180.279 19.3058 172.023 14.95 162.142 14.95V24.95ZM184.142 58.05C184.142 69.2404 181.652 77.8515 177.722 83.5105C173.905 89.0068 168.645 91.9 162.142 91.9V101.9C172.138 101.9 180.378 97.2182 185.936 89.2145C191.381 81.3735 194.142 70.5596 194.142 58.05H184.142ZM233.471 114H228.471V119H233.471V114ZM253.421 114V119H258.421V114H253.421ZM250.571 31.2V26.2H245.046L245.596 31.6975L250.571 31.2ZM251.171 31.2L255.906 29.5944L254.755 26.2H251.171V31.2ZM260.021 57.3L255.286 58.9056L255.308 58.9702L255.332 59.0341L260.021 57.3ZM277.271 103.95L272.582 105.684L273.789 108.95H277.271V103.95ZM290.021 103.95V108.95H293.514L294.716 105.671L290.021 103.95ZM307.121 57.3L311.816 59.0208L311.832 58.9755L311.848 58.9299L307.121 57.3ZM316.121 31.2V26.2H312.557L311.394 29.57L316.121 31.2ZM316.871 31.2L321.839 31.7677L322.475 26.2H316.871V31.2ZM314.021 114H309.021V119H314.021V114ZM334.271 114V119H339.271V114H334.271ZM334.271 2.84999H339.271V-2.15001H334.271V2.84999ZM309.671 2.84999V-2.15001H306.139L304.959 1.1795L309.671 2.84999ZM291.221 54.9L286.509 53.2295L286.504 53.2434L286.499 53.2574L291.221 54.9ZM284.471 76.2V81.2H288.051L289.205 77.8113L284.471 76.2ZM283.721 76.2L278.958 77.7202L280.069 81.2H283.721V76.2ZM276.971 54.9L281.694 53.2574L281.683 53.2253L281.671 53.1935L276.971 54.9ZM258.071 2.84999L262.771 1.14345L261.575 -2.15001H258.071V2.84999ZM233.471 2.84999V-2.15001H228.471V2.84999H233.471ZM233.471 119H253.421V109H233.471V119ZM258.421 114V67.65H248.421V114H258.421ZM258.421 67.65C258.421 56.8246 256.576 41.0014 255.546 30.7025L245.596 31.6975C246.666 42.3986 248.421 57.4754 248.421 67.65H258.421ZM250.571 36.2H251.171V26.2H250.571V36.2ZM246.436 32.8056L255.286 58.9056L264.756 55.6944L255.906 29.5944L246.436 32.8056ZM255.332 59.0341L272.582 105.684L281.961 102.216L264.711 55.5659L255.332 59.0341ZM277.271 108.95H290.021V98.95H277.271V108.95ZM294.716 105.671L311.816 59.0208L302.427 55.5792L285.327 102.229L294.716 105.671ZM311.848 58.9299L320.848 32.8299L311.394 29.57L302.394 55.67L311.848 58.9299ZM316.121 36.2H316.871V26.2H316.121V36.2ZM311.904 30.6323C310.71 41.0734 309.021 56.814 309.021 67.65H319.021C319.021 57.4859 320.632 42.3266 321.839 31.7677L311.904 30.6323ZM309.021 67.65V114H319.021V67.65H309.021ZM314.021 119H334.271V109H314.021V119ZM339.271 114V2.84999H329.271V114H339.271ZM334.271 -2.15001H309.671V7.84999H334.271V-2.15001ZM304.959 1.1795L286.509 53.2295L295.934 56.5705L314.384 4.52048L304.959 1.1795ZM286.499 53.2574C285.261 56.8155 284.146 60.4702 283.062 64.0409C281.968 67.643 280.906 71.158 279.738 74.5887L289.205 77.8113C290.437 74.192 291.549 70.507 292.631 66.9466C293.721 63.3548 294.781 59.8845 295.944 56.5426L286.499 53.2574ZM284.471 71.2H283.721V81.2H284.471V71.2ZM288.485 74.6798C286.305 67.8516 284.115 60.2174 281.694 53.2574L272.249 56.5426C274.628 63.3826 276.637 70.4483 278.958 77.7202L288.485 74.6798ZM281.671 53.1935L262.771 1.14345L253.372 4.55653L272.272 56.6065L281.671 53.1935ZM258.071 -2.15001H233.471V7.84999H258.071V-2.15001ZM228.471 2.84999V114H238.471V2.84999H228.471ZM361.499 114H356.499V119H361.499V114ZM431.249 114V119H436.249V114H431.249ZM431.249 95.4H436.249V90.4H431.249V95.4ZM383.699 95.4H378.699V100.4H383.699V95.4ZM383.699 65.7V60.7H378.699V65.7H383.699ZM422.699 65.7V70.7H427.699V65.7H422.699ZM422.699 47.1H427.699V42.1H422.699V47.1ZM383.699 47.1H378.699V52.1H383.699V47.1ZM383.699 21.45V16.45H378.699V21.45H383.699ZM429.599 21.45V26.45H434.599V21.45H429.599ZM429.599 2.84999H434.599V-2.15001H429.599V2.84999ZM361.499 2.84999V-2.15001H356.499V2.84999H361.499ZM361.499 119H431.249V109H361.499V119ZM436.249 114V95.4H426.249V114H436.249ZM431.249 90.4H383.699V100.4H431.249V90.4ZM388.699 95.4V65.7H378.699V95.4H388.699ZM383.699 70.7H422.699V60.7H383.699V70.7ZM427.699 65.7V47.1H417.699V65.7H427.699ZM422.699 42.1H383.699V52.1H422.699V42.1ZM388.699 47.1V21.45H378.699V47.1H388.699ZM383.699 26.45H429.599V16.45H383.699V26.45ZM434.599 21.45V2.84999H424.599V21.45H434.599ZM429.599 -2.15001H361.499V7.84999H429.599V-2.15001ZM356.499 2.84999V114H366.499V2.84999H356.499Z" fill="#F2C53D"/>
</g>
<defs>
<filter id="filter0_d_191_91" x="0.516113" y="0.899902" width="434.732" height="123.2" filterUnits="userSpaceOnUse" color-interpolation-filters="sRGB">
<feFlood flood-opacity="0" result="BackgroundImageFix"/>
<feColorMatrix in="SourceAlpha" type="matrix" values="0 0 0 0 0 0 0 0 0 0 0 0 0 0 0 0 0 0 127 0" result="hardAlpha"/>
<feOffset dy="4"/>
<feGaussianBlur stdDeviation="2"/>
<feComposite in2="hardAlpha" operator="out"/>
<feColorMatrix type="matrix" values="0 0 0 0 0 0 0 0 0 0 0 0 0 0 0 0 0 0 0.25 0"/>
<feBlend mode="normal" in2="BackgroundImageFix" result="effect1_dropShadow_191_91"/>
<feBlend mode="normal" in="SourceGraphic" in2="effect1_dropShadow_191_91" result="shape"/>
</filter>
</defs>
</svg>
