<svg width="460" height="150" viewBox="0 0 460 150" fill="none" xmlns="http://www.w3.org/2000/svg">
<rect width="460" height="150" fill="white"/>
<path d="M187.125 68.3267C189.441 80.4591 182.957 93.3814 169.95 104.491C156.981 115.569 137.767 124.606 115.37 128.882C92.9742 133.157 71.7817 131.834 55.6441 126.314C39.4596 120.777 28.6705 111.152 26.3542 99.0197C24.038 86.8873 30.5227 73.9651 43.5292 62.8552C56.498 51.7775 75.7126 42.7405 98.1089 38.4647C120.505 34.189 141.698 35.512 157.835 41.0329C174.02 46.5698 184.809 56.1943 187.125 68.3267Z" stroke="url(#paint0_linear_564_255)" stroke-width="3"/>
<path d="M195.859 38.1919C198.819 51.0911 192.139 67.9055 178.462 83.0336C164.848 98.093 144.561 111.163 121.022 116.567C97.4128 121.986 71.1331 120.96 50.0159 115.216C39.459 112.345 30.2587 108.312 23.3442 103.373C16.4221 98.4294 11.9036 92.6628 10.4522 86.3395C7.54653 73.6806 15.3319 61.9618 30.4128 51.8379C45.4281 41.758 67.2038 33.6213 90.9706 28.166C114.793 22.698 139.748 18.7196 159.472 19.4676C169.34 19.8419 177.772 21.396 184.073 24.444C190.324 27.4678 194.42 31.9245 195.859 38.1919Z" fill="white" fill-opacity="0.9" stroke="url(#paint1_linear_564_255)" stroke-width="3"/>
<path d="M163.718 52.6928C165.558 60.7102 161.065 69.7568 151.483 77.9528C141.962 86.0963 127.726 93.0952 111.022 96.9291C94.319 100.763 78.456 100.673 66.3365 97.4967C54.1389 94.3 46.1506 88.1183 44.3103 80.1008C42.4348 71.9295 45.4677 63.9881 53.2525 57.0256C61.0755 50.0291 73.6168 44.1231 90.3699 40.2777C107.118 36.4335 124.696 35.4239 138.528 37.5354C145.447 38.5917 151.343 40.4163 155.717 42.9893C160.08 45.5556 162.824 48.797 163.718 52.6928Z" fill="white" fill-opacity="0.9" stroke="url(#paint2_linear_564_255)" stroke-width="3"/>
<path d="M162.147 57.9005C162.869 61.0456 161.874 64.6218 159.224 68.4683C156.581 72.3053 152.401 76.2412 147.123 79.9842C136.575 87.4657 121.916 93.9867 107.309 97.3394C92.727 100.686 78.3521 100.549 67.2632 97.7826C56.0422 94.9838 48.7366 89.6633 47.2328 83.1118C45.7406 76.6108 50.0596 69.235 59.077 62.4056C67.9846 55.6593 81.0116 49.84 95.6359 46.4833C110.245 43.13 126.273 42.5662 139.019 44.6596C145.396 45.7069 150.87 47.4061 154.917 49.6917C158.974 51.9825 161.425 54.7566 162.147 57.9005Z" fill="white" fill-opacity="0.9" stroke="url(#paint3_linear_564_255)" stroke-width="3"/>
<path d="M108.563 38.99C109.071 34.9944 112.471 32 116.499 32H161.247C166.066 32 169.791 36.2294 169.183 41.01L161.037 105.01C160.529 109.006 157.129 112 153.101 112H108.353C103.534 112 99.809 107.771 100.417 102.99L108.563 38.99Z" fill="white" fill-opacity="0.9" stroke="url(#paint4_linear_564_255)" stroke-width="4"/>
<path fill-rule="evenodd" clip-rule="evenodd" d="M162.201 66.2655C162.201 68.8581 161.924 71.2611 161.371 73.4744C161.801 71.3144 162.033 69.0244 162.201 66.2655Z" fill="url(#paint5_linear_564_255)"/>
<path d="M128.472 83.3948C127.177 83.3948 126.206 82.8651 125.558 81.8055C124.911 80.6871 124.587 79.2449 124.587 77.479C124.587 74.4181 125.44 71.5632 127.147 68.9144C128.913 66.2066 131.062 64.0581 133.593 62.4688C136.183 60.8206 138.596 59.9965 140.833 59.9965C143.011 59.9965 144.336 60.644 144.806 61.939C144.277 64.9999 143.07 68.2374 141.186 71.6515C139.303 75.0068 137.184 77.8028 134.829 80.0396C132.475 82.2764 130.355 83.3948 128.472 83.3948Z" fill="url(#paint6_linear_564_255)"/>
<path fill-rule="evenodd" clip-rule="evenodd" d="M162.201 66.2655C162.201 68.8581 161.924 71.2611 161.371 73.4744C161.801 71.3144 162.033 69.0244 162.201 66.2655Z" fill="#103B73"/>
<path d="M112.755 94.4318C116.699 98.4345 122.056 100.436 128.825 100.436L137.675 83.8064C136.601 84.8204 135.417 85.7133 134.123 86.4852C131.121 88.3099 128.266 89.2223 125.558 89.2223C125.472 89.2223 125.386 89.2214 125.301 89.2196L109.1 89.0457C110.024 91.0776 111.242 92.873 112.755 94.4318Z" fill="#103B73"/>
<path d="M141.186 82.0704C141.186 81.2463 141.275 80.2162 141.451 78.9801C140.398 80.8142 139.14 82.423 137.675 83.8064L128.825 100.436C134.653 100.436 140.068 98.9937 145.071 96.1094C150.134 93.2251 154.136 89.3695 157.08 84.5427L156.815 84.2778C155.284 85.5728 153.489 86.6912 151.429 87.633C149.427 88.5748 147.72 89.0457 146.308 89.0457C144.542 89.0457 143.247 88.3394 142.423 86.9266C141.598 85.4551 141.186 83.8363 141.186 82.0704Z" fill="#103B73"/>
<path fill-rule="evenodd" clip-rule="evenodd" d="M125.301 89.2196C125.386 89.2214 125.472 89.2223 125.558 89.2223L125.301 89.2196ZM150.722 59.2902C150.134 62.0568 149.31 65.1471 148.25 68.5612C147.367 71.5632 146.749 73.8589 146.396 75.4482C146.043 76.9787 145.866 78.4797 145.866 79.9513C145.866 81.7761 146.16 82.9828 146.749 83.5714C147.396 84.1601 148.368 84.4544 149.663 84.4544C153.901 84.4544 157.05 82.6885 159.11 79.1566C160.103 77.4265 160.857 75.5324 161.371 73.4744C161.801 71.3144 162.033 69.0244 162.201 66.2655C162.201 63.7476 161.941 61.4225 161.422 59.2902H150.722Z" fill="#103B73"/>
<path fill-rule="evenodd" clip-rule="evenodd" d="M162.201 66.2655C162.201 68.8581 161.924 71.2611 161.371 73.4744C161.801 71.3144 162.033 69.0244 162.201 66.2655Z" fill="#BF214B"/>
<path fill-rule="evenodd" clip-rule="evenodd" d="M125.301 89.2196L109.1 89.0457C107.652 85.86 106.928 82.0927 106.928 77.7439C106.928 71.5044 108.429 65.7946 111.431 60.6146C114.492 55.4346 118.583 51.373 123.704 48.4298C128.825 45.4278 134.329 43.9268 140.215 43.9268C147.102 43.9268 152.488 45.9281 156.373 49.9308C158.838 52.4702 160.521 55.59 161.422 59.2902H150.722C149.427 57.9363 147.867 56.8179 146.043 55.9349C144.277 55.052 142.275 54.6105 140.039 54.6105C136.448 54.6105 132.887 55.8172 129.355 58.2306C125.882 60.644 123.027 63.7932 120.79 67.6782C118.612 71.5044 117.523 75.3599 117.523 79.2449C117.523 82.0704 118.171 84.4544 119.466 86.3969C120.72 88.2216 122.665 89.1625 125.301 89.2196Z" fill="#BF214B"/>
<path fill-rule="evenodd" clip-rule="evenodd" d="M159.11 79.1566C157.05 82.6885 153.901 84.4544 149.663 84.4544C148.368 84.4544 147.396 84.1601 146.749 83.5714C146.16 82.9828 145.866 81.7761 145.866 79.9513C145.866 78.4797 146.043 76.9787 146.396 75.4482C146.749 73.8589 147.367 71.5632 148.25 68.5612C149.31 65.1471 150.134 62.0568 150.722 59.2902C149.427 57.9363 147.867 56.8179 146.043 55.9349C144.277 55.052 142.275 54.6105 140.039 54.6105C136.448 54.6105 132.887 55.8172 129.355 58.2306C125.882 60.644 123.027 63.7932 120.79 67.6782C118.612 71.5044 117.523 75.3599 117.523 79.2449C117.523 82.0704 118.171 84.4544 119.466 86.3969C120.72 88.2216 122.665 89.1625 125.301 89.2196L125.558 89.2223C128.266 89.2223 131.121 88.3099 134.123 86.4852C137.184 84.6604 139.626 82.1587 141.451 78.9801C141.275 80.2162 141.186 81.2463 141.186 82.0704C141.186 83.8363 141.598 85.4551 142.423 86.9266C143.247 88.3394 144.542 89.0457 146.308 89.0457C147.72 89.0457 149.427 88.5748 151.429 87.633C153.489 86.6912 155.284 85.5728 156.815 84.2778L157.08 84.5427C159.43 80.2075 160.666 77.0158 161.371 73.4744C160.857 75.5324 160.103 77.4265 159.11 79.1566ZM125.558 81.8055C126.206 82.8651 127.177 83.3948 128.472 83.3948C130.355 83.3948 132.475 82.2764 134.829 80.0396C137.184 77.8028 139.303 75.0068 141.186 71.6515C143.07 68.2374 144.277 64.9999 144.806 61.939C144.336 60.644 143.011 59.9965 140.833 59.9965C138.596 59.9965 136.183 60.8206 133.593 62.4688C131.062 64.0581 128.913 66.2066 127.147 68.9144C125.44 71.5632 124.587 74.4181 124.587 77.479C124.587 79.2449 124.911 80.6871 125.558 81.8055Z" fill="#FAFAFA"/>
<rect x="173" y="53" width="277" height="44" fill="white" fill-opacity="0.9"/>
<path d="M173.44 89.44L188.92 61H192.6L177.12 89.44H173.44ZM181.36 89.44L196.84 61H200.52L185.04 89.44H181.36ZM177.96 72.44L179.92 68.52H200.72L198.68 72.44H177.96ZM173.78 80.44L176.14 76.52H196.94L194.5 80.44H173.78ZM211.539 89.4C209.966 89.4 208.646 89.0333 207.579 88.3C206.512 87.5533 205.686 86.54 205.099 85.26L206.419 84.36L205.259 89H200.819L206.099 59H211.099L208.619 72.94L207.979 71.86C208.472 71.1533 209.052 70.5667 209.719 70.1C210.399 69.6333 211.126 69.28 211.899 69.04C212.686 68.8 213.486 68.68 214.299 68.68C215.886 68.68 217.219 69.06 218.299 69.82C219.379 70.5667 220.192 71.5867 220.739 72.88C221.299 74.16 221.579 75.6 221.579 77.2C221.579 78.7333 221.352 80.2267 220.899 81.68C220.459 83.1333 219.812 84.4467 218.959 85.62C218.106 86.78 217.052 87.7 215.799 88.38C214.559 89.06 213.139 89.4 211.539 89.4ZM210.859 85.32C211.992 85.32 212.979 84.9733 213.819 84.28C214.659 83.5733 215.306 82.64 215.759 81.48C216.226 80.32 216.459 79.0533 216.459 77.68C216.459 76.2133 216.172 75.0267 215.599 74.12C215.039 73.2133 214.126 72.76 212.859 72.76C211.579 72.76 210.512 73.14 209.659 73.9C208.806 74.66 208.166 75.64 207.739 76.84C207.312 78.04 207.099 79.3067 207.099 80.64C207.099 82.08 207.379 83.22 207.939 84.06C208.512 84.9 209.486 85.32 210.859 85.32ZM228.602 77.5C229.069 77.62 229.482 77.7 229.842 77.74C230.215 77.78 230.629 77.8 231.082 77.8C232.709 77.8 233.969 77.6533 234.862 77.36C235.769 77.0533 236.395 76.6667 236.742 76.2C237.102 75.72 237.282 75.2267 237.282 74.72C237.282 74.12 237.115 73.68 236.782 73.4C236.462 73.12 236.095 72.9467 235.682 72.88C235.282 72.8 234.962 72.76 234.722 72.76C233.642 72.76 232.715 73.06 231.942 73.66C231.169 74.26 230.549 74.96 230.082 75.76C229.629 76.56 229.329 77.26 229.182 77.86L228.822 80.34C228.835 81.5667 229.062 82.5467 229.502 83.28C229.955 84 230.535 84.52 231.242 84.84C231.949 85.16 232.682 85.32 233.442 85.32C234.642 85.32 235.775 85.16 236.842 84.84C237.909 84.52 238.869 84.1333 239.722 83.68L239.162 87.88C238.349 88.32 237.369 88.6867 236.222 88.98C235.089 89.26 233.842 89.4 232.482 89.4C230.455 89.4 228.789 89.02 227.482 88.26C226.175 87.4867 225.209 86.4533 224.582 85.16C223.955 83.8533 223.642 82.4 223.642 80.8C223.642 79.2667 223.909 77.78 224.442 76.34C224.975 74.9 225.735 73.6067 226.722 72.46C227.709 71.3 228.895 70.38 230.282 69.7C231.669 69.02 233.215 68.68 234.922 68.68C237.042 68.68 238.655 69.2133 239.762 70.28C240.882 71.3333 241.442 72.7333 241.442 74.48C241.442 75.6933 241.182 76.72 240.662 77.56C240.142 78.4 239.429 79.08 238.522 79.6C237.629 80.1067 236.609 80.4733 235.462 80.7C234.329 80.9267 233.135 81.04 231.882 81.04C231.149 81.04 230.469 81.0067 229.842 80.94C229.215 80.8733 228.702 80.7867 228.302 80.68L228.602 77.5ZM251.366 89L254.886 69H259.846L256.326 89H251.366ZM255.446 65.96L256.286 61H261.286L260.406 65.96H255.446ZM261.053 89L264.573 69H268.933L269.233 70.76L266.013 89H261.053ZM273.013 89C273.427 86.68 273.76 84.76 274.013 83.24C274.28 81.72 274.487 80.5067 274.633 79.6C274.78 78.6933 274.887 78.0067 274.953 77.54C275.02 77.0733 275.06 76.7467 275.073 76.56C275.087 76.3733 275.093 76.2267 275.093 76.12C275.093 74.96 274.867 74.1133 274.413 73.58C273.973 73.0333 273.253 72.76 272.253 72.76C271.44 72.76 270.727 72.9333 270.113 73.28C269.513 73.6267 268.92 74.1133 268.333 74.74L268.893 70.36C269.6 69.8933 270.367 69.5 271.193 69.18C272.033 68.8467 273.013 68.68 274.133 68.68C276.2 68.68 277.72 69.3133 278.693 70.58C279.68 71.8333 280.173 73.4533 280.173 75.44C280.173 75.6 280.16 75.8 280.133 76.04C280.12 76.28 280.08 76.6533 280.013 77.16C279.947 77.6667 279.833 78.4 279.673 79.36C279.513 80.3067 279.3 81.56 279.033 83.12C278.767 84.68 278.427 86.64 278.013 89H273.013ZM297.372 89.4C295.812 89.4 294.692 88.98 294.012 88.14C293.345 87.3 293.012 86.32 293.012 85.2C293.012 85.12 293.025 84.9733 293.052 84.76C293.078 84.5467 293.145 84.1067 293.252 83.44C293.358 82.76 293.538 81.7 293.792 80.26C294.045 78.8067 294.392 76.82 294.832 74.3C295.285 71.7667 295.865 68.5333 296.572 64.6L301.612 64.08L298.212 84.04C298.212 84.64 298.385 85.0067 298.732 85.14C299.092 85.26 299.718 85.32 300.612 85.32H302.012L300.812 89.4H297.372ZM292.412 73.08L293.572 69H304.852L304.132 73.08H292.412ZM304.647 89L309.927 59H314.887L309.607 89H304.647ZM316.727 89L318.407 79.16C318.514 78.5733 318.607 77.9733 318.687 77.36C318.767 76.7467 318.807 76.16 318.807 75.6C318.807 74.72 318.581 74.0267 318.127 73.52C317.687 73.0133 317.047 72.76 316.207 72.76C315.367 72.76 314.614 72.9333 313.947 73.28C313.281 73.6267 312.594 74.1067 311.887 74.72L312.547 71C313.507 70.1733 314.447 69.58 315.367 69.22C316.287 68.86 317.261 68.68 318.287 68.68C319.501 68.68 320.521 68.9333 321.347 69.44C322.174 69.9467 322.794 70.6533 323.207 71.56C323.634 72.4533 323.847 73.48 323.847 74.64C323.847 75.12 323.821 75.66 323.767 76.26C323.727 76.8467 323.634 77.56 323.487 78.4L321.687 89H316.727ZM331.571 77.5C332.037 77.62 332.451 77.7 332.811 77.74C333.184 77.78 333.597 77.8 334.051 77.8C335.677 77.8 336.937 77.6533 337.831 77.36C338.737 77.0533 339.364 76.6667 339.711 76.2C340.071 75.72 340.251 75.2267 340.251 74.72C340.251 74.12 340.084 73.68 339.751 73.4C339.431 73.12 339.064 72.9467 338.651 72.88C338.251 72.8 337.931 72.76 337.691 72.76C336.611 72.76 335.684 73.06 334.911 73.66C334.137 74.26 333.517 74.96 333.051 75.76C332.597 76.56 332.297 77.26 332.151 77.86L331.791 80.34C331.804 81.5667 332.031 82.5467 332.471 83.28C332.924 84 333.504 84.52 334.211 84.84C334.917 85.16 335.651 85.32 336.411 85.32C337.611 85.32 338.744 85.16 339.811 84.84C340.877 84.52 341.837 84.1333 342.691 83.68L342.131 87.88C341.317 88.32 340.337 88.6867 339.191 88.98C338.057 89.26 336.811 89.4 335.451 89.4C333.424 89.4 331.757 89.02 330.451 88.26C329.144 87.4867 328.177 86.4533 327.551 85.16C326.924 83.8533 326.611 82.4 326.611 80.8C326.611 79.2667 326.877 77.78 327.411 76.34C327.944 74.9 328.704 73.6067 329.691 72.46C330.677 71.3 331.864 70.38 333.251 69.7C334.637 69.02 336.184 68.68 337.891 68.68C340.011 68.68 341.624 69.2133 342.731 70.28C343.851 71.3333 344.411 72.7333 344.411 74.48C344.411 75.6933 344.151 76.72 343.631 77.56C343.111 78.4 342.397 79.08 341.491 79.6C340.597 80.1067 339.577 80.4733 338.431 80.7C337.297 80.9267 336.104 81.04 334.851 81.04C334.117 81.04 333.437 81.0067 332.811 80.94C332.184 80.8733 331.671 80.7867 331.271 80.68L331.571 77.5ZM362.015 84.44C359.868 84.44 358.235 83.8533 357.115 82.68C356.008 81.4933 355.455 79.8933 355.455 77.88C355.455 76.28 355.835 74.78 356.595 73.38C357.368 71.98 358.448 70.8467 359.835 69.98C361.221 69.1133 362.855 68.68 364.735 68.68C366.721 68.68 368.308 69.2333 369.495 70.34C370.695 71.4467 371.295 73.0533 371.295 75.16C371.295 76.3733 371.081 77.5333 370.655 78.64C370.228 79.7467 369.608 80.74 368.795 81.62C367.995 82.4867 367.021 83.1733 365.875 83.68C364.728 84.1867 363.441 84.44 362.015 84.44ZM362.655 80.8C363.548 80.8 364.308 80.5667 364.935 80.1C365.561 79.62 366.035 78.9867 366.355 78.2C366.688 77.4133 366.855 76.56 366.855 75.64C366.855 74.5733 366.628 73.7533 366.175 73.18C365.721 72.6067 365.015 72.32 364.055 72.32C363.161 72.32 362.401 72.56 361.775 73.04C361.161 73.52 360.695 74.1533 360.375 74.94C360.055 75.7267 359.895 76.5867 359.895 77.52C359.895 78.56 360.115 79.3667 360.555 79.94C360.995 80.5133 361.695 80.8 362.655 80.8ZM360.415 99C358.455 99 356.875 98.7467 355.675 98.24C354.475 97.7467 353.601 97.1 353.055 96.3C352.495 95.5 352.215 94.6533 352.215 93.76C352.215 92.96 352.401 92.24 352.775 91.6C353.135 90.96 353.641 90.38 354.295 89.86C354.948 89.34 355.701 88.86 356.555 88.42L359.815 89.74C359.255 89.9 358.708 90.1133 358.175 90.38C357.655 90.6467 357.221 90.98 356.875 91.38C356.541 91.7933 356.375 92.2933 356.375 92.88C356.375 93.6933 356.748 94.3267 357.495 94.78C358.255 95.2467 359.321 95.48 360.695 95.48C361.695 95.48 362.615 95.36 363.455 95.12C364.308 94.88 364.988 94.54 365.495 94.1C366.001 93.6733 366.255 93.1733 366.255 92.6C366.255 91.9467 365.981 91.46 365.435 91.14C364.901 90.82 364.201 90.58 363.335 90.42C362.481 90.26 361.575 90.1133 360.615 89.98C359.655 89.8467 358.741 89.6533 357.875 89.4C357.021 89.16 356.321 88.7933 355.775 88.3C355.241 87.7933 354.975 87.08 354.975 86.16C354.975 85.3867 355.215 84.74 355.695 84.22C356.188 83.6867 356.868 83.22 357.735 82.82L360.395 84.12C360.155 84.1733 359.961 84.28 359.815 84.44C359.681 84.5867 359.615 84.7733 359.615 85C359.615 85.4533 360.008 85.7733 360.795 85.96C361.595 86.1467 362.655 86.3333 363.975 86.52C364.615 86.6133 365.321 86.7467 366.095 86.92C366.868 87.0933 367.608 87.3667 368.315 87.74C369.021 88.1 369.601 88.6067 370.055 89.26C370.508 89.9133 370.735 90.7733 370.735 91.84C370.735 93.1867 370.321 94.4 369.495 95.48C368.681 96.56 367.501 97.4133 365.955 98.04C364.421 98.68 362.575 99 360.415 99ZM370.455 72.22L368.735 69.98C369.081 69.74 369.648 69.52 370.435 69.32C371.235 69.1067 372.121 69 373.095 69H374.455L373.615 72.12H371.735C371.601 72.12 371.421 72.1267 371.195 72.14C370.968 72.14 370.721 72.1667 370.455 72.22ZM381.667 89.4C380.12 89.4 378.794 89.04 377.687 88.32C376.58 87.6 375.734 86.6133 375.147 85.36C374.56 84.1067 374.267 82.68 374.267 81.08C374.267 79.52 374.52 78.0067 375.027 76.54C375.547 75.06 376.294 73.7267 377.267 72.54C378.254 71.3533 379.44 70.4133 380.827 69.72C382.214 69.0267 383.774 68.68 385.507 68.68C386.427 68.68 387.22 68.7933 387.887 69.02C388.554 69.2467 389.147 69.5733 389.667 70C390.2 70.4133 390.7 70.9133 391.167 71.5L389.287 72.54L390.707 69H395.027L392.707 82.68C392.6 83.32 392.547 83.8267 392.547 84.2C392.547 84.76 392.687 85.0867 392.967 85.18C393.26 85.2733 393.774 85.32 394.507 85.32L393.387 89.4C392.134 89.4 391.154 89.3467 390.447 89.24C389.74 89.1467 389.194 88.9667 388.807 88.7C388.42 88.42 388.087 88.0267 387.807 87.52C387.527 87 387.187 86.3333 386.787 85.52L388.447 86.26C387.954 86.7133 387.4 87.1867 386.787 87.68C386.174 88.16 385.454 88.5667 384.627 88.9C383.8 89.2333 382.814 89.4 381.667 89.4ZM383.347 85.32C384.454 85.32 385.36 85.0533 386.067 84.52C386.774 83.9867 387.32 83.3 387.707 82.46C388.094 81.62 388.36 80.7467 388.507 79.84C388.667 78.92 388.747 78.08 388.747 77.32C388.747 75.92 388.467 74.8133 387.907 74C387.347 73.1733 386.427 72.76 385.147 72.76C384.014 72.76 383.014 73.1067 382.147 73.8C381.294 74.4933 380.627 75.4267 380.147 76.6C379.667 77.76 379.427 79.04 379.427 80.44C379.427 81.8933 379.734 83.0733 380.347 83.98C380.974 84.8733 381.974 85.32 383.347 85.32ZM397.186 89L400.706 69H404.786L404.806 74.08L402.146 89H397.186ZM409.226 89C409.613 86.8133 409.933 84.98 410.186 83.5C410.453 82.0067 410.666 80.7933 410.826 79.86C410.986 78.9133 411.106 78.1733 411.186 77.64C411.28 77.0933 411.34 76.6733 411.366 76.38C411.406 76.0867 411.426 75.84 411.426 75.64C411.426 74.48 411.1 73.7133 410.446 73.34C409.806 72.9533 409.106 72.76 408.346 72.76C407.533 72.76 406.826 72.9267 406.226 73.26C405.626 73.5933 405.053 74.06 404.506 74.66L404.606 70.72C405.153 70.2133 405.913 69.7467 406.886 69.32C407.86 68.8933 408.893 68.68 409.986 68.68C410.84 68.68 411.673 68.84 412.486 69.16C413.313 69.48 414.013 69.9933 414.586 70.7C415.173 71.4067 415.526 72.34 415.646 73.5L416.606 74.94L414.146 89H409.226ZM421.186 89C421.6 86.6533 421.933 84.72 422.186 83.2C422.453 81.68 422.66 80.4733 422.806 79.58C422.966 78.6867 423.08 78.0133 423.146 77.56C423.213 77.0933 423.253 76.76 423.266 76.56C423.293 76.36 423.306 76.1867 423.306 76.04C423.306 74.72 423.066 73.8467 422.586 73.42C422.106 72.98 421.453 72.76 420.626 72.76C419.64 72.76 418.846 72.96 418.246 73.36C417.66 73.7467 417.213 74.24 416.906 74.84C416.613 75.4267 416.413 76.0267 416.306 76.64L414.926 72.52C414.873 72.1467 415.14 71.66 415.726 71.06C416.326 70.4467 417.166 69.9 418.246 69.42C419.34 68.9267 420.6 68.68 422.026 68.68C424.186 68.68 425.773 69.3 426.786 70.54C427.8 71.7667 428.306 73.3733 428.306 75.36C428.306 75.5467 428.293 75.7733 428.266 76.04C428.253 76.2933 428.206 76.68 428.126 77.2C428.06 77.7067 427.946 78.44 427.786 79.4C427.626 80.3467 427.413 81.6 427.146 83.16C426.893 84.7067 426.56 86.6533 426.146 89H421.186ZM436.024 77.5C436.49 77.62 436.904 77.7 437.264 77.74C437.637 77.78 438.05 77.8 438.504 77.8C440.13 77.8 441.39 77.6533 442.284 77.36C443.19 77.0533 443.817 76.6667 444.164 76.2C444.524 75.72 444.704 75.2267 444.704 74.72C444.704 74.12 444.537 73.68 444.204 73.4C443.884 73.12 443.517 72.9467 443.104 72.88C442.704 72.8 442.384 72.76 442.144 72.76C441.064 72.76 440.137 73.06 439.364 73.66C438.59 74.26 437.97 74.96 437.504 75.76C437.05 76.56 436.75 77.26 436.604 77.86L436.244 80.34C436.257 81.5667 436.484 82.5467 436.924 83.28C437.377 84 437.957 84.52 438.664 84.84C439.37 85.16 440.104 85.32 440.864 85.32C442.064 85.32 443.197 85.16 444.264 84.84C445.33 84.52 446.29 84.1333 447.144 83.68L446.584 87.88C445.77 88.32 444.79 88.6867 443.644 88.98C442.51 89.26 441.264 89.4 439.904 89.4C437.877 89.4 436.21 89.02 434.904 88.26C433.597 87.4867 432.63 86.4533 432.004 85.16C431.377 83.8533 431.064 82.4 431.064 80.8C431.064 79.2667 431.33 77.78 431.864 76.34C432.397 74.9 433.157 73.6067 434.144 72.46C435.13 71.3 436.317 70.38 437.704 69.7C439.09 69.02 440.637 68.68 442.344 68.68C444.464 68.68 446.077 69.2133 447.184 70.28C448.304 71.3333 448.864 72.7333 448.864 74.48C448.864 75.6933 448.604 76.72 448.084 77.56C447.564 78.4 446.85 79.08 445.944 79.6C445.05 80.1067 444.03 80.4733 442.884 80.7C441.75 80.9267 440.557 81.04 439.304 81.04C438.57 81.04 437.89 81.0067 437.264 80.94C436.637 80.8733 436.124 80.7867 435.724 80.68L436.024 77.5Z" fill="#262626"/>
<path d="M236 139.4C234.68 139.4 233.487 139.273 232.42 139.02C231.367 138.767 230.307 138.4 229.24 137.92L229.68 133.68C230.707 134.28 231.713 134.767 232.7 135.14C233.7 135.5 234.747 135.68 235.84 135.68C236.827 135.68 237.58 135.52 238.1 135.2C238.62 134.88 238.88 134.373 238.88 133.68C238.88 133.16 238.74 132.733 238.46 132.4C238.193 132.067 237.787 131.767 237.24 131.5C236.693 131.233 236.013 130.947 235.2 130.64C233.973 130.187 232.927 129.693 232.06 129.16C231.207 128.627 230.553 127.987 230.1 127.24C229.66 126.48 229.44 125.547 229.44 124.44C229.44 123.293 229.74 122.28 230.34 121.4C230.94 120.52 231.793 119.833 232.9 119.34C234.007 118.847 235.32 118.6 236.84 118.6C238.107 118.6 239.24 118.74 240.24 119.02C241.253 119.3 242.187 119.68 243.04 120.16L242.6 124.4C241.707 123.773 240.807 123.26 239.9 122.86C238.993 122.447 238 122.24 236.92 122.24C236.067 122.24 235.407 122.413 234.94 122.76C234.473 123.107 234.24 123.6 234.24 124.24C234.24 125.013 234.567 125.593 235.22 125.98C235.873 126.367 236.92 126.84 238.36 127.4C239.293 127.76 240.1 128.133 240.78 128.52C241.473 128.907 242.047 129.333 242.5 129.8C242.953 130.267 243.287 130.8 243.5 131.4C243.727 131.987 243.84 132.667 243.84 133.44C243.84 134.707 243.533 135.787 242.92 136.68C242.32 137.56 241.433 138.233 240.26 138.7C239.1 139.167 237.68 139.4 236 139.4ZM253.754 139.4C252.501 139.4 251.481 139.147 250.694 138.64C249.907 138.12 249.327 137.46 248.954 136.66C248.581 135.86 248.394 135.027 248.394 134.16V123.08H245.554L245.994 119H248.394V114.6L253.354 114.08V119H257.754V123.08H253.354V132.12C253.354 133.133 253.414 133.867 253.534 134.32C253.654 134.76 253.927 135.04 254.354 135.16C254.781 135.267 255.461 135.32 256.394 135.32H257.754L257.314 139.4H253.754ZM265.304 139.4C264.237 139.4 263.264 139.167 262.384 138.7C261.504 138.22 260.804 137.533 260.284 136.64C259.764 135.747 259.504 134.667 259.504 133.4C259.504 132.267 259.764 131.3 260.284 130.5C260.817 129.687 261.511 129.013 262.364 128.48C263.231 127.933 264.164 127.507 265.164 127.2C266.177 126.88 267.171 126.647 268.144 126.5C269.131 126.353 269.997 126.267 270.744 126.24C270.691 125.093 270.397 124.26 269.864 123.74C269.331 123.22 268.424 122.96 267.144 122.96C266.251 122.96 265.377 123.087 264.524 123.34C263.684 123.58 262.731 123.96 261.664 124.48L261.224 120.44C262.424 119.853 263.624 119.413 264.824 119.12C266.037 118.827 267.264 118.68 268.504 118.68C269.997 118.68 271.284 118.947 272.364 119.48C273.444 120.013 274.277 120.873 274.864 122.06C275.451 123.233 275.744 124.787 275.744 126.72V132.12C275.744 133.12 275.791 133.847 275.884 134.3C275.977 134.74 276.151 135.02 276.404 135.14C276.657 135.26 277.024 135.32 277.504 135.32H278.144L277.704 139.4H275.904C275.157 139.4 274.491 139.3 273.904 139.1C273.331 138.913 272.837 138.647 272.424 138.3C272.011 137.953 271.677 137.547 271.424 137.08C270.771 137.813 269.884 138.387 268.764 138.8C267.657 139.2 266.504 139.4 265.304 139.4ZM267.384 135.6C267.824 135.6 268.371 135.487 269.024 135.26C269.677 135.02 270.264 134.653 270.784 134.16V129.6C269.851 129.64 268.917 129.793 267.984 130.06C267.051 130.327 266.271 130.72 265.644 131.24C265.017 131.76 264.704 132.413 264.704 133.2C264.704 134.013 264.917 134.62 265.344 135.02C265.771 135.407 266.451 135.6 267.384 135.6ZM288.986 139.4C286.959 139.4 285.253 138.927 283.866 137.98C282.493 137.033 281.453 135.773 280.746 134.2C280.053 132.627 279.706 130.907 279.706 129.04C279.706 127.173 280.053 125.453 280.746 123.88C281.453 122.307 282.493 121.047 283.866 120.1C285.253 119.153 286.959 118.68 288.986 118.68C290.453 118.68 291.693 118.927 292.706 119.42C293.719 119.9 294.613 120.52 295.386 121.28L294.186 122.32V109H299.146V139H294.466L294.226 135.6L295.666 136.64C294.733 137.493 293.766 138.167 292.766 138.66C291.766 139.153 290.506 139.4 288.986 139.4ZM289.706 135.32C290.799 135.32 291.693 135.053 292.386 134.52C293.079 133.987 293.593 133.253 293.926 132.32C294.259 131.373 294.426 130.28 294.426 129.04C294.426 127.8 294.259 126.713 293.926 125.78C293.593 124.833 293.079 124.093 292.386 123.56C291.693 123.027 290.799 122.76 289.706 122.76C288.666 122.76 287.779 123.027 287.046 123.56C286.313 124.093 285.753 124.833 285.366 125.78C284.979 126.713 284.786 127.8 284.786 129.04C284.786 130.28 284.979 131.373 285.366 132.32C285.753 133.253 286.313 133.987 287.046 134.52C287.779 135.053 288.666 135.32 289.706 135.32ZM303.758 139V119H308.718V139H303.758ZM303.758 115.96V111H308.718V115.96H303.758ZM321.647 139.4C319.567 139.4 317.907 138.987 316.667 138.16C315.427 137.333 314.534 136.2 313.987 134.76C313.44 133.307 313.167 131.64 313.167 129.76V119H318.127V129.76C318.127 131.613 318.434 132.993 319.047 133.9C319.674 134.793 320.687 135.24 322.087 135.24C323.207 135.24 324.134 134.973 324.867 134.44C325.614 133.907 326.234 133.16 326.727 132.2L325.847 134.72V119H330.807V139H326.167L325.927 135.52L327.007 136.92C326.527 137.533 325.767 138.1 324.727 138.62C323.7 139.14 322.674 139.4 321.647 139.4ZM335.437 139V119H339.677L339.997 121.92L339.277 121.04C340.037 120.44 340.944 119.9 341.997 119.42C343.064 118.927 344.304 118.68 345.717 118.68C346.784 118.68 347.724 118.84 348.537 119.16C349.364 119.467 350.071 119.913 350.657 120.5C351.244 121.073 351.717 121.76 352.077 122.56L350.877 122.28C351.517 121.133 352.451 120.247 353.677 119.62C354.917 118.993 356.317 118.68 357.877 118.68C359.717 118.68 361.217 119.06 362.377 119.82C363.537 120.58 364.391 121.653 364.937 123.04C365.484 124.413 365.757 126.027 365.757 127.88V139H360.797V128.24C360.797 126.373 360.504 124.993 359.917 124.1C359.344 123.207 358.384 122.76 357.037 122.76C356.371 122.76 355.784 122.88 355.277 123.12C354.784 123.347 354.371 123.687 354.037 124.14C353.717 124.58 353.477 125.12 353.317 125.76C353.157 126.387 353.077 127.093 353.077 127.88V139H348.117V128.24C348.117 127 347.984 125.973 347.717 125.16C347.464 124.347 347.051 123.747 346.477 123.36C345.917 122.96 345.184 122.76 344.277 122.76C343.117 122.76 342.164 123.033 341.417 123.58C340.684 124.113 340.037 124.84 339.477 125.76L340.397 123.08V139H335.437ZM386.008 132.36H374.288V127.88H386.008V132.36ZM379.488 116H380.808L372.728 139H367.768L377.728 111H382.568L392.528 139H387.568L379.488 116ZM394.408 139L398.288 111H402.488L409.328 123.76L416.128 111H420.328L424.208 139H418.888L416.208 117.96L417.608 118.24L409.328 133.12L401.008 118.28L402.408 118L399.728 139H394.408ZM428.853 139V111H438.813C440.96 111 442.773 111.32 444.253 111.96C445.733 112.6 446.853 113.587 447.613 114.92C448.387 116.253 448.773 117.96 448.773 120.04C448.773 122.147 448.393 123.887 447.633 125.26C446.873 126.62 445.76 127.633 444.293 128.3C442.827 128.953 441.04 129.28 438.933 129.28H433.973V139H428.853ZM433.973 125H438.333C440.08 125 441.387 124.607 442.253 123.82C443.133 123.033 443.573 121.8 443.573 120.12C443.573 118.44 443.127 117.213 442.233 116.44C441.353 115.667 440.013 115.28 438.213 115.28H433.973V125Z" fill="#262626"/>
<defs>
<linearGradient id="paint0_linear_564_255" x1="97.8276" y1="36.9914" x2="115.652" y2="130.355" gradientUnits="userSpaceOnUse">
<stop stop-color="#BF214B"/>
<stop offset="1" stop-color="#103B73"/>
</linearGradient>
<linearGradient id="paint1_linear_564_255" x1="94.7747" y1="25.7538" x2="116.225" y2="119.207" gradientUnits="userSpaceOnUse">
<stop stop-color="#BF214B"/>
<stop offset="1" stop-color="#103B73"/>
</linearGradient>
<linearGradient id="paint2_linear_564_255" x1="96.864" y1="35.2485" x2="111.357" y2="98.3916" gradientUnits="userSpaceOnUse">
<stop stop-color="#BF214B"/>
<stop offset="1" stop-color="#103B73"/>
</linearGradient>
<linearGradient id="paint3_linear_564_255" x1="98.6631" y1="44.2494" x2="111.007" y2="98.0295" gradientUnits="userSpaceOnUse">
<stop stop-color="#BF214B"/>
<stop offset="1" stop-color="#103B73"/>
</linearGradient>
<linearGradient id="paint4_linear_564_255" x1="101.582" y1="30" x2="144.682" y2="124" gradientUnits="userSpaceOnUse">
<stop stop-color="#BF214B"/>
<stop offset="1" stop-color="#103B73"/>
</linearGradient>
<linearGradient id="paint5_linear_564_255" x1="134.419" y1="74.854" x2="134.419" y2="61.8722" gradientUnits="userSpaceOnUse">
<stop stop-color="#103B73"/>
<stop offset="1" stop-color="#BF214B"/>
</linearGradient>
<linearGradient id="paint6_linear_564_255" x1="134.419" y1="74.854" x2="134.419" y2="61.8722" gradientUnits="userSpaceOnUse">
<stop stop-color="#103B73"/>
<stop offset="1" stop-color="#BF214B"/>
</linearGradient>
</defs>
</svg>
