<svg width="140" height="190" viewBox="0 0 140 190" fill="none" xmlns="http://www.w3.org/2000/svg">
<rect x="3.5" y="3.5" width="133" height="183" fill="white"/>
<path d="M64.881 87.7474V101.795C62.696 100.208 61.2656 97.6614 61.2656 94.7694C61.2656 91.8771 62.6962 89.3307 64.881 87.7474Z" fill="#329548" fill-opacity="0.5" stroke="#326295"/>
<path d="M75.1152 87.7439C77.3003 89.3307 78.7306 91.8773 78.7306 94.7692C78.7306 97.6615 77.3001 100.208 75.1152 101.791V87.7439Z" fill="#329548" fill-opacity="0.5" stroke="#326295"/>
<path d="M28.9648 107.036V82.5023C33.785 84.5197 37.1956 89.2348 37.1956 94.7693C37.1956 100.304 33.785 105.019 28.9648 107.036Z" fill="#329548" fill-opacity="0.5" stroke="#326295"/>
<path d="M10.5 126.577V62.9615H18.7308V126.577H10.5Z" fill="#329548" fill-opacity="0.5" stroke="#326295"/>
<path d="M23.8462 52.7308H10.5V44.5H64.8847V76.5805C56.9194 78.8237 51.0385 86.0926 51.0385 94.7693C51.0385 103.446 56.9194 110.715 64.8847 112.958V145.039H10.5V136.808H23.8462C26.675 136.808 28.9616 134.516 28.9616 131.692V117.785C39.5084 115.44 47.4232 106.017 47.4232 94.7693C47.4232 83.522 39.5084 74.0985 28.9616 71.7539V57.8462C28.9616 55.0227 26.675 52.7308 23.8462 52.7308Z" fill="#329548" fill-opacity="0.5" stroke="#326295"/>
<path d="M102.801 94.7693C102.801 89.2348 106.211 84.5197 111.032 82.5023V107.032C106.212 105.019 102.801 100.304 102.801 94.7693Z" fill="#329548" fill-opacity="0.5" stroke="#326295"/>
<path d="M121.266 126.577V62.9615H129.496V126.577H121.266Z" fill="#329548" fill-opacity="0.5" stroke="#326295"/>
<path d="M88.9614 94.7693C88.9614 86.0926 83.0805 78.8237 75.1152 76.5805V44.5H129.5V52.7308H116.154C113.325 52.7308 111.038 55.0227 111.038 57.8462V71.7539C100.492 74.0985 92.5768 83.522 92.5768 94.7693C92.5768 106.017 100.492 115.44 111.038 117.785V131.692C111.038 134.516 113.325 136.808 116.154 136.808H129.5V145.039H75.1152V112.958C83.0805 110.715 88.9614 103.446 88.9614 94.7693Z" fill="#329548" fill-opacity="0.5" stroke="#326295"/>
<mask id="path-10-outside-1_895_36" maskUnits="userSpaceOnUse" x="12" y="15" width="116" height="161" fill="black">
<rect fill="white" x="12" y="15" width="116" height="161"/>
<path d="M20.704 56.88L16 18H23.296L25.6 40.656L28.528 18.048H34.24L37.312 40.512L39.664 18H46.864L42.208 56.88H34.72L31.408 33.408L28.288 56.88H20.704Z"/>
<path d="M59.647 57.36C57.663 57.36 55.935 57.024 54.463 56.352C53.023 55.68 51.903 54.672 51.103 53.328C50.335 51.984 49.951 50.304 49.951 48.288V37.728C49.951 35.712 50.335 34.032 51.103 32.688C51.903 31.344 53.023 30.336 54.463 29.664C55.935 28.992 57.663 28.656 59.647 28.656C61.631 28.656 63.343 28.992 64.783 29.664C66.255 30.336 67.391 31.344 68.191 32.688C68.991 34.032 69.391 35.712 69.391 37.728V48.288C69.391 50.304 68.991 51.984 68.191 53.328C67.391 54.672 66.255 55.68 64.783 56.352C63.343 57.024 61.631 57.36 59.647 57.36ZM59.695 52.176C60.207 52.176 60.607 52.048 60.895 51.792C61.183 51.504 61.375 51.12 61.471 50.64C61.599 50.128 61.663 49.52 61.663 48.816V37.2C61.663 36.496 61.599 35.904 61.471 35.424C61.375 34.912 61.183 34.528 60.895 34.272C60.607 33.984 60.207 33.84 59.695 33.84C59.183 33.84 58.783 33.984 58.495 34.272C58.207 34.528 57.999 34.912 57.871 35.424C57.743 35.904 57.679 36.496 57.679 37.2V48.816C57.679 49.52 57.743 50.128 57.871 50.64C57.999 51.12 58.207 51.504 58.495 51.792C58.783 52.048 59.183 52.176 59.695 52.176Z"/>
<path d="M73.8261 56.88V29.136H81.6501V33.744C82.5461 32.144 83.4421 30.928 84.3381 30.096C85.2341 29.232 86.3221 28.8 87.6021 28.8C87.8581 28.8 88.0821 28.816 88.2741 28.848C88.4661 28.848 88.6421 28.88 88.8021 28.944V36.72C88.4501 36.56 88.0501 36.432 87.6021 36.336C87.1861 36.208 86.7381 36.144 86.2581 36.144C85.3621 36.144 84.5301 36.384 83.7621 36.864C82.9941 37.344 82.2901 38 81.6501 38.832V56.88H73.8261Z"/>
<path d="M92.4411 56.88V18H100.217V56.88H92.4411Z"/>
<path d="M111.277 57.36C109.229 57.36 107.645 56.64 106.525 55.2C105.405 53.76 104.845 51.632 104.845 48.816V37.344C104.845 35.616 105.085 34.112 105.565 32.832C106.045 31.52 106.765 30.496 107.725 29.76C108.685 29.024 109.869 28.656 111.277 28.656C112.301 28.656 113.277 28.864 114.205 29.28C115.133 29.664 115.981 30.192 116.749 30.864V18H124.573V56.88H116.749V54.72C115.885 55.552 114.989 56.208 114.061 56.688C113.133 57.136 112.205 57.36 111.277 57.36ZM114.685 52.368C114.941 52.368 115.245 52.304 115.597 52.176C115.981 52.048 116.365 51.872 116.749 51.648V34.128C116.429 33.968 116.093 33.824 115.741 33.696C115.389 33.568 115.053 33.504 114.733 33.504C114.029 33.504 113.517 33.808 113.197 34.416C112.877 34.992 112.717 35.696 112.717 36.528V49.296C112.717 49.872 112.781 50.4 112.909 50.88C113.037 51.328 113.245 51.696 113.533 51.984C113.821 52.24 114.205 52.368 114.685 52.368Z"/>
<path d="M25.6818 173V140.504H19.8258V134.12H40.1298V140.504H34.3218V173H25.6818Z"/>
<path d="M43.5527 173V134.12H61.0247V139.976H52.1447V149.624H58.9128V155.576H52.1447V167.192H61.1208V173H43.5527Z"/>
<path d="M63.1495 173L70.4935 134.12H80.2855L87.5335 173H79.6135L78.3175 164.792H72.6055L71.2615 173H63.1495ZM73.3735 159.656H77.5015L75.4375 144.488L73.3735 159.656Z"/>
<path d="M91.315 173L91.987 134.12H101.203L105.475 156.728L110.083 134.12H118.963L119.635 173H113.539L112.819 147.128L108.307 173H102.883L98.083 146.936L97.507 173H91.315Z"/>
</mask>
<path d="M20.704 56.88L16 18H23.296L25.6 40.656L28.528 18.048H34.24L37.312 40.512L39.664 18H46.864L42.208 56.88H34.72L31.408 33.408L28.288 56.88H20.704Z" fill="#326295"/>
<path d="M59.647 57.36C57.663 57.36 55.935 57.024 54.463 56.352C53.023 55.68 51.903 54.672 51.103 53.328C50.335 51.984 49.951 50.304 49.951 48.288V37.728C49.951 35.712 50.335 34.032 51.103 32.688C51.903 31.344 53.023 30.336 54.463 29.664C55.935 28.992 57.663 28.656 59.647 28.656C61.631 28.656 63.343 28.992 64.783 29.664C66.255 30.336 67.391 31.344 68.191 32.688C68.991 34.032 69.391 35.712 69.391 37.728V48.288C69.391 50.304 68.991 51.984 68.191 53.328C67.391 54.672 66.255 55.68 64.783 56.352C63.343 57.024 61.631 57.36 59.647 57.36ZM59.695 52.176C60.207 52.176 60.607 52.048 60.895 51.792C61.183 51.504 61.375 51.12 61.471 50.64C61.599 50.128 61.663 49.52 61.663 48.816V37.2C61.663 36.496 61.599 35.904 61.471 35.424C61.375 34.912 61.183 34.528 60.895 34.272C60.607 33.984 60.207 33.84 59.695 33.84C59.183 33.84 58.783 33.984 58.495 34.272C58.207 34.528 57.999 34.912 57.871 35.424C57.743 35.904 57.679 36.496 57.679 37.2V48.816C57.679 49.52 57.743 50.128 57.871 50.64C57.999 51.12 58.207 51.504 58.495 51.792C58.783 52.048 59.183 52.176 59.695 52.176Z" fill="#326295"/>
<path d="M73.8261 56.88V29.136H81.6501V33.744C82.5461 32.144 83.4421 30.928 84.3381 30.096C85.2341 29.232 86.3221 28.8 87.6021 28.8C87.8581 28.8 88.0821 28.816 88.2741 28.848C88.4661 28.848 88.6421 28.88 88.8021 28.944V36.72C88.4501 36.56 88.0501 36.432 87.6021 36.336C87.1861 36.208 86.7381 36.144 86.2581 36.144C85.3621 36.144 84.5301 36.384 83.7621 36.864C82.9941 37.344 82.2901 38 81.6501 38.832V56.88H73.8261Z" fill="#326295"/>
<path d="M92.4411 56.88V18H100.217V56.88H92.4411Z" fill="#326295"/>
<path d="M111.277 57.36C109.229 57.36 107.645 56.64 106.525 55.2C105.405 53.76 104.845 51.632 104.845 48.816V37.344C104.845 35.616 105.085 34.112 105.565 32.832C106.045 31.52 106.765 30.496 107.725 29.76C108.685 29.024 109.869 28.656 111.277 28.656C112.301 28.656 113.277 28.864 114.205 29.28C115.133 29.664 115.981 30.192 116.749 30.864V18H124.573V56.88H116.749V54.72C115.885 55.552 114.989 56.208 114.061 56.688C113.133 57.136 112.205 57.36 111.277 57.36ZM114.685 52.368C114.941 52.368 115.245 52.304 115.597 52.176C115.981 52.048 116.365 51.872 116.749 51.648V34.128C116.429 33.968 116.093 33.824 115.741 33.696C115.389 33.568 115.053 33.504 114.733 33.504C114.029 33.504 113.517 33.808 113.197 34.416C112.877 34.992 112.717 35.696 112.717 36.528V49.296C112.717 49.872 112.781 50.4 112.909 50.88C113.037 51.328 113.245 51.696 113.533 51.984C113.821 52.24 114.205 52.368 114.685 52.368Z" fill="#326295"/>
<path d="M25.6818 173V140.504H19.8258V134.12H40.1298V140.504H34.3218V173H25.6818Z" fill="#326295"/>
<path d="M43.5527 173V134.12H61.0247V139.976H52.1447V149.624H58.9128V155.576H52.1447V167.192H61.1208V173H43.5527Z" fill="#326295"/>
<path d="M63.1495 173L70.4935 134.12H80.2855L87.5335 173H79.6135L78.3175 164.792H72.6055L71.2615 173H63.1495ZM73.3735 159.656H77.5015L75.4375 144.488L73.3735 159.656Z" fill="#326295"/>
<path d="M91.315 173L91.987 134.12H101.203L105.475 156.728L110.083 134.12H118.963L119.635 173H113.539L112.819 147.128L108.307 173H102.883L98.083 146.936L97.507 173H91.315Z" fill="#326295"/>
<path d="M20.704 56.88L16 18H23.296L25.6 40.656L28.528 18.048H34.24L37.312 40.512L39.664 18H46.864L42.208 56.88H34.72L31.408 33.408L28.288 56.88H20.704Z" stroke="#329548" stroke-width="6" mask="url(#path-10-outside-1_895_36)"/>
<path d="M59.647 57.36C57.663 57.36 55.935 57.024 54.463 56.352C53.023 55.68 51.903 54.672 51.103 53.328C50.335 51.984 49.951 50.304 49.951 48.288V37.728C49.951 35.712 50.335 34.032 51.103 32.688C51.903 31.344 53.023 30.336 54.463 29.664C55.935 28.992 57.663 28.656 59.647 28.656C61.631 28.656 63.343 28.992 64.783 29.664C66.255 30.336 67.391 31.344 68.191 32.688C68.991 34.032 69.391 35.712 69.391 37.728V48.288C69.391 50.304 68.991 51.984 68.191 53.328C67.391 54.672 66.255 55.68 64.783 56.352C63.343 57.024 61.631 57.36 59.647 57.36ZM59.695 52.176C60.207 52.176 60.607 52.048 60.895 51.792C61.183 51.504 61.375 51.12 61.471 50.64C61.599 50.128 61.663 49.52 61.663 48.816V37.2C61.663 36.496 61.599 35.904 61.471 35.424C61.375 34.912 61.183 34.528 60.895 34.272C60.607 33.984 60.207 33.84 59.695 33.84C59.183 33.84 58.783 33.984 58.495 34.272C58.207 34.528 57.999 34.912 57.871 35.424C57.743 35.904 57.679 36.496 57.679 37.2V48.816C57.679 49.52 57.743 50.128 57.871 50.64C57.999 51.12 58.207 51.504 58.495 51.792C58.783 52.048 59.183 52.176 59.695 52.176Z" stroke="#329548" stroke-width="6" mask="url(#path-10-outside-1_895_36)"/>
<path d="M73.8261 56.88V29.136H81.6501V33.744C82.5461 32.144 83.4421 30.928 84.3381 30.096C85.2341 29.232 86.3221 28.8 87.6021 28.8C87.8581 28.8 88.0821 28.816 88.2741 28.848C88.4661 28.848 88.6421 28.88 88.8021 28.944V36.72C88.4501 36.56 88.0501 36.432 87.6021 36.336C87.1861 36.208 86.7381 36.144 86.2581 36.144C85.3621 36.144 84.5301 36.384 83.7621 36.864C82.9941 37.344 82.2901 38 81.6501 38.832V56.88H73.8261Z" stroke="#329548" stroke-width="6" mask="url(#path-10-outside-1_895_36)"/>
<path d="M92.4411 56.88V18H100.217V56.88H92.4411Z" stroke="#329548" stroke-width="6" mask="url(#path-10-outside-1_895_36)"/>
<path d="M111.277 57.36C109.229 57.36 107.645 56.64 106.525 55.2C105.405 53.76 104.845 51.632 104.845 48.816V37.344C104.845 35.616 105.085 34.112 105.565 32.832C106.045 31.52 106.765 30.496 107.725 29.76C108.685 29.024 109.869 28.656 111.277 28.656C112.301 28.656 113.277 28.864 114.205 29.28C115.133 29.664 115.981 30.192 116.749 30.864V18H124.573V56.88H116.749V54.72C115.885 55.552 114.989 56.208 114.061 56.688C113.133 57.136 112.205 57.36 111.277 57.36ZM114.685 52.368C114.941 52.368 115.245 52.304 115.597 52.176C115.981 52.048 116.365 51.872 116.749 51.648V34.128C116.429 33.968 116.093 33.824 115.741 33.696C115.389 33.568 115.053 33.504 114.733 33.504C114.029 33.504 113.517 33.808 113.197 34.416C112.877 34.992 112.717 35.696 112.717 36.528V49.296C112.717 49.872 112.781 50.4 112.909 50.88C113.037 51.328 113.245 51.696 113.533 51.984C113.821 52.24 114.205 52.368 114.685 52.368Z" stroke="#329548" stroke-width="6" mask="url(#path-10-outside-1_895_36)"/>
<path d="M25.6818 173V140.504H19.8258V134.12H40.1298V140.504H34.3218V173H25.6818Z" stroke="#329548" stroke-width="6" mask="url(#path-10-outside-1_895_36)"/>
<path d="M43.5527 173V134.12H61.0247V139.976H52.1447V149.624H58.9128V155.576H52.1447V167.192H61.1208V173H43.5527Z" stroke="#329548" stroke-width="6" mask="url(#path-10-outside-1_895_36)"/>
<path d="M63.1495 173L70.4935 134.12H80.2855L87.5335 173H79.6135L78.3175 164.792H72.6055L71.2615 173H63.1495ZM73.3735 159.656H77.5015L75.4375 144.488L73.3735 159.656Z" stroke="#329548" stroke-width="6" mask="url(#path-10-outside-1_895_36)"/>
<path d="M91.315 173L91.987 134.12H101.203L105.475 156.728L110.083 134.12H118.963L119.635 173H113.539L112.819 147.128L108.307 173H102.883L98.083 146.936L97.507 173H91.315Z" stroke="#329548" stroke-width="6" mask="url(#path-10-outside-1_895_36)"/>
<rect x="3.5" y="3.5" width="133" height="183" stroke="#326295" stroke-width="7"/>
</svg>
