<svg width="512" height="512" viewBox="0 0 512 512" fill="none" xmlns="http://www.w3.org/2000/svg">
<rect width="512" height="512" fill="white"/>
<path fill-rule="evenodd" clip-rule="evenodd" d="M376.779 214.283C376.779 225.395 375.594 235.693 373.223 245.178C375.066 235.922 376.063 226.107 376.779 214.283Z" fill="url(#paint0_linear_602_72)"/>
<path d="M232.227 287.695C226.677 287.695 222.514 285.424 219.739 280.883C216.964 276.09 215.577 269.91 215.577 262.341C215.577 249.223 219.235 236.988 226.551 225.636C234.119 214.031 243.327 204.823 254.175 198.012C265.275 190.948 275.618 187.416 285.204 187.416C294.538 187.416 300.214 190.191 302.233 195.741C299.962 208.86 294.79 222.735 286.718 237.366C278.645 251.746 269.563 263.729 259.472 273.315C249.381 282.902 240.3 287.695 232.227 287.695Z" fill="url(#paint1_linear_602_72)"/>
<path fill-rule="evenodd" clip-rule="evenodd" d="M376.779 214.283C376.779 225.395 375.594 235.693 373.223 245.178C375.066 235.922 376.063 226.107 376.779 214.283Z" fill="#103B73"/>
<path d="M164.87 334.996C181.772 352.15 204.729 360.728 233.74 360.728L271.669 289.459C267.068 293.804 261.994 297.631 256.445 300.939C243.579 308.76 231.344 312.67 219.739 312.67C219.369 312.67 219.001 312.666 218.637 312.658L149.206 311.913C153.165 320.621 158.386 328.315 164.87 334.996Z" fill="#103B73"/>
<path d="M286.718 282.019C286.718 278.487 287.096 274.072 287.853 268.774C283.34 276.635 277.946 283.53 271.669 289.459L233.74 360.728C258.715 360.728 281.925 354.547 303.368 342.186C325.063 329.824 342.218 313.3 354.831 292.614L353.696 291.479C347.137 297.029 339.443 301.822 330.613 305.858C322.036 309.895 314.72 311.913 308.665 311.913C301.097 311.913 295.547 308.886 292.015 302.831C288.484 296.524 286.718 289.587 286.718 282.019Z" fill="#103B73"/>
<path fill-rule="evenodd" clip-rule="evenodd" d="M218.637 312.658C219.001 312.666 219.369 312.67 219.739 312.67L218.637 312.658ZM327.586 184.389C325.063 196.246 321.531 209.49 316.99 224.122C313.206 236.988 310.558 246.827 309.044 253.638C307.53 260.197 306.773 266.63 306.773 272.937C306.773 280.757 308.035 285.929 310.558 288.452C313.333 290.974 317.495 292.236 323.045 292.236C341.209 292.236 354.705 284.667 363.535 269.531C367.789 262.116 371.019 253.999 373.223 245.178C375.066 235.922 376.063 226.107 376.779 214.283C376.779 203.492 375.666 193.528 373.441 184.389H327.586Z" fill="#103B73"/>
<path fill-rule="evenodd" clip-rule="evenodd" d="M376.779 214.283C376.779 225.395 375.594 235.693 373.223 245.178C375.066 235.922 376.063 226.107 376.779 214.283Z" fill="#BF214B"/>
<path fill-rule="evenodd" clip-rule="evenodd" d="M218.637 312.658L149.206 311.913C142.999 298.26 139.895 282.114 139.895 263.477C139.895 236.736 146.328 212.265 159.194 190.065C172.312 167.865 189.845 150.458 211.793 137.845C233.74 124.979 257.328 118.546 282.555 118.546C312.071 118.546 335.154 127.123 351.804 144.278C362.367 155.161 369.579 168.531 373.441 184.389H327.586C322.036 178.587 315.351 173.794 307.53 170.01C299.962 166.225 291.385 164.333 281.798 164.333C266.41 164.333 251.147 169.505 236.011 179.848C221.127 190.191 208.892 203.688 199.305 220.338C189.971 236.736 185.304 253.26 185.304 269.91C185.304 282.019 188.079 292.236 193.629 300.561C199.006 308.381 207.342 312.414 218.637 312.658Z" fill="#BF214B"/>
<path d="M140.638 100.033C142.131 88.2961 152.118 79.5 163.95 79.5H387.696C401.852 79.5 412.795 91.924 411.008 105.967L372.062 411.967C370.569 423.704 360.582 432.5 348.75 432.5H125.004C110.848 432.5 99.9049 420.076 101.692 406.033L140.638 100.033Z" stroke="url(#paint2_linear_602_72)" stroke-width="7"/>
<defs>
<linearGradient id="paint0_linear_602_72" x1="257.713" y1="251.091" x2="257.713" y2="195.455" gradientUnits="userSpaceOnUse">
<stop stop-color="#103B73"/>
<stop offset="1" stop-color="#BF214B"/>
</linearGradient>
<linearGradient id="paint1_linear_602_72" x1="257.713" y1="251.091" x2="257.713" y2="195.455" gradientUnits="userSpaceOnUse">
<stop stop-color="#103B73"/>
<stop offset="1" stop-color="#BF214B"/>
</linearGradient>
<linearGradient id="paint2_linear_602_72" x1="113.986" y1="76" x2="298.702" y2="478.856" gradientUnits="userSpaceOnUse">
<stop stop-color="#BF214B"/>
<stop offset="1" stop-color="#103B73"/>
</linearGradient>
</defs>
</svg>
