<svg width="138" height="190" viewBox="0 0 138 190" fill="none" xmlns="http://www.w3.org/2000/svg">
<g clip-path="url(#clip0_895_20)">
<path d="M13.3283 6.02471H124.469V62.6307L130.356 67.2906V0.137451H7.44108V67.2906L13.3283 62.6307V6.02471ZM124.469 184.073H13.3283V127.714L7.41406 123.108V189.962H130.356V123.108L124.469 127.714V184.073Z" fill="#021858"/>
<path d="M137.66 73.0417L124.469 62.6307V6.02368H13.3277V62.6307L0.136719 73.0417L7.25027 96.5887L0.464077 117.629L13.3277 127.713V184.073H124.469V127.714L137.305 117.63L130.547 96.5897L137.66 73.0417Z" fill="white"/>
<path d="M21.9134 14.6088H115.884V55.8716L119.21 58.4884V11.2843H18.5879V58.4884L21.9134 55.8716V14.6088ZM115.884 175.489H21.9134V134.445L18.5879 131.828V178.814H119.21V131.828L115.884 134.445V175.489Z" fill="#EC0F32"/>
<path d="M68.8991 87.7864L61.0768 43.2262L28.8086 54.3459L63.8567 36.2758L68.8991 68.7902L73.9404 36.2758L108.99 54.3459L76.7214 43.2262L68.8991 87.7864Z" fill="#021858"/>
<path d="M68.8984 55.6533L66.3627 30.1443L41.6445 44.2072L68.8984 22.7034L96.1513 44.2072L71.4051 30.1443L68.8984 55.6533Z" fill="#021858"/>
<path d="M84.8702 54.373L73.0427 82.0623L80.5376 48.5948L84.8702 54.373ZM57.263 48.5948L64.7569 82.0623L52.9023 54.373L57.263 48.5948ZM121.964 96.6708L128.368 75.4944L118.147 61.5406L134.118 74.1589L127.332 96.6438L133.737 116.539L120.219 127.168L127.986 115.422L121.964 96.6708Z" fill="#021858"/>
<path d="M91.4375 98.796L116.075 107.082L112.859 96.5616L119.645 75.3582L117.847 68.1355L123.487 76.5024L117.111 96.2894L122.916 114.822L115.23 128.176L117.628 113.623L91.4375 98.796Z" fill="#021858"/>
<path d="M94.8183 96.0441L103.893 95.5536L114.604 78.9279L108.117 97.1072L109.236 100.731L94.8183 96.0441ZM104.165 81.5988L86.5605 83.8612L82.1178 99.6679L83.6164 79.0911L115.721 69.4709L105.638 75.7126L104.165 81.5988ZM3.68164 74.1589L19.6515 61.5405L9.43172 75.4943L15.8365 96.6708L9.81312 115.422L17.5803 127.168L4.062 116.539L10.4668 96.6167L3.68164 74.1589Z" fill="#021858"/>
<path d="M14.8532 114.822L20.6864 96.2894L14.3086 76.5024L19.9506 68.1366L18.1517 75.3582L24.9379 96.5617L21.7214 107.082L46.3596 98.7961L20.1678 113.623L22.5663 128.176L14.8532 114.822Z" fill="#021858"/>
<path d="M33.9044 95.5536L42.98 96.0441L28.5627 100.731L29.6799 97.1073L23.193 78.928L33.9044 95.5536ZM54.1539 79.0922L55.6524 99.6409L51.2378 83.8612L33.6321 81.5988L32.1325 75.7126L22.0488 69.4709L54.1539 79.0922ZM80.1264 152.459L89.8017 145.019L88.1389 152.296L68.8985 167.422L49.6571 152.296L47.9943 145.019L57.6696 152.46L80.1264 152.459Z" fill="#021858"/>
<path d="M83.0705 111.471L69.5252 122.998L93.1262 134.554L104.383 126.76L105.909 115.64L94.1893 104.111L111.96 115.776L109.725 130.765L95.4437 141.695L92.7448 147.826L90.102 140.603L68.8985 131.937L47.695 140.604L45.0512 147.827L42.3534 141.695L28.0722 130.765L25.8379 115.776L43.6067 104.111L31.8602 115.64L33.3858 126.76L44.6418 134.554L68.2438 122.998L54.6984 111.47L50.6922 104.819L57.6145 108.962H80.1815L87.1028 104.819L83.0705 111.471Z" fill="#021858"/>
<mask id="path-12-outside-1_895_20" maskUnits="userSpaceOnUse" x="16" y="20" width="106" height="152" fill="black">
<rect fill="white" x="16" y="20" width="106" height="152"/>
<path d="M24.856 61.88V29.384H19V23H39.304V29.384H33.496V61.88H24.856Z"/>
<path d="M42.727 61.88V23H60.199V28.856H51.319V38.504H58.087V44.456H51.319V56.072H60.295V61.88H42.727Z"/>
<path d="M62.3237 61.88L69.6678 23H79.4598L86.7077 61.88H78.7878L77.4917 53.672H71.7798L70.4357 61.88H62.3237ZM72.5478 48.536H76.6758L74.6118 33.368L72.5478 48.536Z"/>
<path d="M90.4893 61.88L91.1612 23H100.377L104.649 45.608L109.257 23H118.137L118.809 61.88H112.713L111.993 36.008L107.481 61.88H102.057L97.2572 35.816L96.6813 61.88H90.4893Z"/>
<path d="M31.2895 167.88V129H39.8815V144.888L46.4095 129H54.8095L47.6095 146.568L55.1455 167.88H46.4095L40.7935 150.696L39.8815 152.232V167.88H31.2895Z"/>
<path d="M68.7224 168.456C65.8104 168.456 63.5064 167.944 61.8104 166.92C60.1144 165.896 58.8984 164.424 58.1624 162.504C57.4264 160.584 57.0584 158.296 57.0584 155.64V141.192C57.0584 138.504 57.4264 136.216 58.1624 134.328C58.8984 132.44 60.1144 131 61.8104 130.008C63.5064 128.984 65.8104 128.472 68.7224 128.472C71.6664 128.472 73.9864 128.984 75.6824 130.008C77.4104 131 78.6424 132.44 79.3784 134.328C80.1144 136.216 80.4824 138.504 80.4824 141.192V155.64C80.4824 158.296 80.1144 160.584 79.3784 162.504C78.6424 164.424 77.4104 165.896 75.6824 166.92C73.9864 167.944 71.6664 168.456 68.7224 168.456ZM68.7224 162.36C69.6184 162.36 70.2744 162.136 70.6904 161.688C71.1064 161.24 71.3784 160.664 71.5064 159.96C71.6344 159.256 71.6984 158.536 71.6984 157.8V139.08C71.6984 138.312 71.6344 137.592 71.5064 136.92C71.3784 136.216 71.1064 135.64 70.6904 135.192C70.2744 134.744 69.6184 134.52 68.7224 134.52C67.8904 134.52 67.2664 134.744 66.8504 135.192C66.4344 135.64 66.1624 136.216 66.0344 136.92C65.9064 137.592 65.8424 138.312 65.8424 139.08V157.8C65.8424 158.536 65.8904 159.256 65.9864 159.96C66.1144 160.664 66.3704 161.24 66.7544 161.688C67.1704 162.136 67.8264 162.36 68.7224 162.36Z"/>
<path d="M85.7114 167.88V129H96.4154C99.0394 129 101.311 129.288 103.231 129.864C105.151 130.44 106.639 131.48 107.695 132.984C108.783 134.456 109.327 136.552 109.327 139.272C109.327 140.872 109.199 142.296 108.943 143.544C108.687 144.792 108.207 145.88 107.503 146.808C106.831 147.704 105.855 148.456 104.575 149.064L109.903 167.88H101.023L96.7514 150.456H94.3034V167.88H85.7114ZM94.3034 145.512H96.7034C97.9194 145.512 98.8634 145.304 99.5354 144.888C100.207 144.44 100.671 143.816 100.927 143.016C101.215 142.184 101.359 141.192 101.359 140.04C101.359 138.376 101.055 137.08 100.447 136.152C99.8394 135.224 98.7194 134.76 97.0874 134.76H94.3034V145.512Z"/>
</mask>
<path d="M24.856 61.88V29.384H19V23H39.304V29.384H33.496V61.88H24.856Z" fill="#EC0F32"/>
<path d="M42.727 61.88V23H60.199V28.856H51.319V38.504H58.087V44.456H51.319V56.072H60.295V61.88H42.727Z" fill="#EC0F32"/>
<path d="M62.3237 61.88L69.6678 23H79.4598L86.7077 61.88H78.7878L77.4917 53.672H71.7798L70.4357 61.88H62.3237ZM72.5478 48.536H76.6758L74.6118 33.368L72.5478 48.536Z" fill="#EC0F32"/>
<path d="M90.4893 61.88L91.1612 23H100.377L104.649 45.608L109.257 23H118.137L118.809 61.88H112.713L111.993 36.008L107.481 61.88H102.057L97.2572 35.816L96.6813 61.88H90.4893Z" fill="#EC0F32"/>
<path d="M31.2895 167.88V129H39.8815V144.888L46.4095 129H54.8095L47.6095 146.568L55.1455 167.88H46.4095L40.7935 150.696L39.8815 152.232V167.88H31.2895Z" fill="#EC0F32"/>
<path d="M68.7224 168.456C65.8104 168.456 63.5064 167.944 61.8104 166.92C60.1144 165.896 58.8984 164.424 58.1624 162.504C57.4264 160.584 57.0584 158.296 57.0584 155.64V141.192C57.0584 138.504 57.4264 136.216 58.1624 134.328C58.8984 132.44 60.1144 131 61.8104 130.008C63.5064 128.984 65.8104 128.472 68.7224 128.472C71.6664 128.472 73.9864 128.984 75.6824 130.008C77.4104 131 78.6424 132.44 79.3784 134.328C80.1144 136.216 80.4824 138.504 80.4824 141.192V155.64C80.4824 158.296 80.1144 160.584 79.3784 162.504C78.6424 164.424 77.4104 165.896 75.6824 166.92C73.9864 167.944 71.6664 168.456 68.7224 168.456ZM68.7224 162.36C69.6184 162.36 70.2744 162.136 70.6904 161.688C71.1064 161.24 71.3784 160.664 71.5064 159.96C71.6344 159.256 71.6984 158.536 71.6984 157.8V139.08C71.6984 138.312 71.6344 137.592 71.5064 136.92C71.3784 136.216 71.1064 135.64 70.6904 135.192C70.2744 134.744 69.6184 134.52 68.7224 134.52C67.8904 134.52 67.2664 134.744 66.8504 135.192C66.4344 135.64 66.1624 136.216 66.0344 136.92C65.9064 137.592 65.8424 138.312 65.8424 139.08V157.8C65.8424 158.536 65.8904 159.256 65.9864 159.96C66.1144 160.664 66.3704 161.24 66.7544 161.688C67.1704 162.136 67.8264 162.36 68.7224 162.36Z" fill="#EC0F32"/>
<path d="M85.7114 167.88V129H96.4154C99.0394 129 101.311 129.288 103.231 129.864C105.151 130.44 106.639 131.48 107.695 132.984C108.783 134.456 109.327 136.552 109.327 139.272C109.327 140.872 109.199 142.296 108.943 143.544C108.687 144.792 108.207 145.88 107.503 146.808C106.831 147.704 105.855 148.456 104.575 149.064L109.903 167.88H101.023L96.7514 150.456H94.3034V167.88H85.7114ZM94.3034 145.512H96.7034C97.9194 145.512 98.8634 145.304 99.5354 144.888C100.207 144.44 100.671 143.816 100.927 143.016C101.215 142.184 101.359 141.192 101.359 140.04C101.359 138.376 101.055 137.08 100.447 136.152C99.8394 135.224 98.7194 134.76 97.0874 134.76H94.3034V145.512Z" fill="#EC0F32"/>
<path d="M24.856 61.88V29.384H19V23H39.304V29.384H33.496V61.88H24.856Z" stroke="#021858" stroke-width="6" mask="url(#path-12-outside-1_895_20)"/>
<path d="M42.727 61.88V23H60.199V28.856H51.319V38.504H58.087V44.456H51.319V56.072H60.295V61.88H42.727Z" stroke="#021858" stroke-width="6" mask="url(#path-12-outside-1_895_20)"/>
<path d="M62.3237 61.88L69.6678 23H79.4598L86.7077 61.88H78.7878L77.4917 53.672H71.7798L70.4357 61.88H62.3237ZM72.5478 48.536H76.6758L74.6118 33.368L72.5478 48.536Z" stroke="#021858" stroke-width="6" mask="url(#path-12-outside-1_895_20)"/>
<path d="M90.4893 61.88L91.1612 23H100.377L104.649 45.608L109.257 23H118.137L118.809 61.88H112.713L111.993 36.008L107.481 61.88H102.057L97.2572 35.816L96.6813 61.88H90.4893Z" stroke="#021858" stroke-width="6" mask="url(#path-12-outside-1_895_20)"/>
<path d="M31.2895 167.88V129H39.8815V144.888L46.4095 129H54.8095L47.6095 146.568L55.1455 167.88H46.4095L40.7935 150.696L39.8815 152.232V167.88H31.2895Z" stroke="#021858" stroke-width="6" mask="url(#path-12-outside-1_895_20)"/>
<path d="M68.7224 168.456C65.8104 168.456 63.5064 167.944 61.8104 166.92C60.1144 165.896 58.8984 164.424 58.1624 162.504C57.4264 160.584 57.0584 158.296 57.0584 155.64V141.192C57.0584 138.504 57.4264 136.216 58.1624 134.328C58.8984 132.44 60.1144 131 61.8104 130.008C63.5064 128.984 65.8104 128.472 68.7224 128.472C71.6664 128.472 73.9864 128.984 75.6824 130.008C77.4104 131 78.6424 132.44 79.3784 134.328C80.1144 136.216 80.4824 138.504 80.4824 141.192V155.64C80.4824 158.296 80.1144 160.584 79.3784 162.504C78.6424 164.424 77.4104 165.896 75.6824 166.92C73.9864 167.944 71.6664 168.456 68.7224 168.456ZM68.7224 162.36C69.6184 162.36 70.2744 162.136 70.6904 161.688C71.1064 161.24 71.3784 160.664 71.5064 159.96C71.6344 159.256 71.6984 158.536 71.6984 157.8V139.08C71.6984 138.312 71.6344 137.592 71.5064 136.92C71.3784 136.216 71.1064 135.64 70.6904 135.192C70.2744 134.744 69.6184 134.52 68.7224 134.52C67.8904 134.52 67.2664 134.744 66.8504 135.192C66.4344 135.64 66.1624 136.216 66.0344 136.92C65.9064 137.592 65.8424 138.312 65.8424 139.08V157.8C65.8424 158.536 65.8904 159.256 65.9864 159.96C66.1144 160.664 66.3704 161.24 66.7544 161.688C67.1704 162.136 67.8264 162.36 68.7224 162.36Z" stroke="#021858" stroke-width="6" mask="url(#path-12-outside-1_895_20)"/>
<path d="M85.7114 167.88V129H96.4154C99.0394 129 101.311 129.288 103.231 129.864C105.151 130.44 106.639 131.48 107.695 132.984C108.783 134.456 109.327 136.552 109.327 139.272C109.327 140.872 109.199 142.296 108.943 143.544C108.687 144.792 108.207 145.88 107.503 146.808C106.831 147.704 105.855 148.456 104.575 149.064L109.903 167.88H101.023L96.7514 150.456H94.3034V167.88H85.7114ZM94.3034 145.512H96.7034C97.9194 145.512 98.8634 145.304 99.5354 144.888C100.207 144.44 100.671 143.816 100.927 143.016C101.215 142.184 101.359 141.192 101.359 140.04C101.359 138.376 101.055 137.08 100.447 136.152C99.8394 135.224 98.7194 134.76 97.0874 134.76H94.3034V145.512Z" stroke="#021858" stroke-width="6" mask="url(#path-12-outside-1_895_20)"/>
</g>
<defs>
<clipPath id="clip0_895_20">
<rect width="137.757" height="190" fill="white"/>
</clipPath>
</defs>
</svg>
