<svg width="119" height="31" viewBox="0 0 119 31" fill="none" xmlns="http://www.w3.org/2000/svg">
<path d="M0.201705 30V0.90909H7.23295V12.5852H18.696V0.90909H25.7131V30H18.696V18.3097H7.23295V30H0.201705ZM57.581 15.4545C57.581 18.6553 56.9654 21.3684 55.7344 23.5938C54.5033 25.8191 52.8366 27.5095 50.7344 28.6648C48.6416 29.8201 46.2931 30.3977 43.6889 30.3977C41.0753 30.3977 38.7221 29.8153 36.6293 28.6506C34.5365 27.4858 32.8745 25.7955 31.6435 23.5795C30.4219 21.3542 29.8111 18.6458 29.8111 15.4545C29.8111 12.2538 30.4219 9.54072 31.6435 7.31534C32.8745 5.08996 34.5365 3.39962 36.6293 2.24432C38.7221 1.08901 41.0753 0.511363 43.6889 0.511363C46.2931 0.511363 48.6416 1.08901 50.7344 2.24432C52.8366 3.39962 54.5033 5.08996 55.7344 7.31534C56.9654 9.54072 57.581 12.2538 57.581 15.4545ZM50.3935 15.4545C50.3935 13.5606 50.1236 11.9602 49.5838 10.6534C49.0535 9.34659 48.2865 8.35701 47.2827 7.68466C46.2884 7.01231 45.0904 6.67614 43.6889 6.67614C42.2969 6.67614 41.099 7.01231 40.0952 7.68466C39.0914 8.35701 38.3196 9.34659 37.7798 10.6534C37.2495 11.9602 36.9844 13.5606 36.9844 15.4545C36.9844 17.3485 37.2495 18.9489 37.7798 20.2557C38.3196 21.5625 39.0914 22.5521 40.0952 23.2244C41.099 23.8968 42.2969 24.233 43.6889 24.233C45.0904 24.233 46.2884 23.8968 47.2827 23.2244C48.2865 22.5521 49.0535 21.5625 49.5838 20.2557C50.1236 18.9489 50.3935 17.3485 50.3935 15.4545ZM61.6861 0.90909H70.3935L77.7798 18.9205H78.1207L85.5071 0.90909H94.2145V30H87.3679V12.1307H87.1264L80.1378 29.8153H75.7628L68.7741 12.0312H68.5327V30H61.6861V0.90909ZM98.6001 30V0.90909H118.884V6.61932H105.631V12.5852H117.847V18.3097H105.631V24.2898H118.884V30H98.6001Z" fill="#DCDCDC"/>
</svg>
